<svg id="xinhui-map" width="780px" height="800px" viewBox="-80 30 780 800" version="1.1" xmlns="http://www.w3.org/2000/svg" xmlns:xlink="http://www.w3.org/1999/xlink">
    <!-- Generator: Sketch 63 (92445) - https://sketch.com -->
    <title>云城地图</title>
    <desc>Created with Sketch.</desc>
    <!-- <style>
        .area {
            cursor: pointer;
        }

        .area:hover {
            fill: #0093FF;
            fill-opacity: 0.7;
        }

        .area.active {
            fill: #0093FF;
            fill-opacity: 1;
        }

        .dian.cur {
            fill-opacity: 0;
        }
    </style> -->
    <g id="智慧农业园区" stroke="none" stroke-width="1" fill="none" fill-rule="evenodd">
        <g id="大数据首页-云城区" transform="translate(-653.000000, -219.000000)">
            <g id="云城地图" transform="translate(653.000000, 220.000000)">
                <g id="地图">
                    <g transform="translate(55.000000, 32.000000)">
                        <g id="南盛镇" transform="translate(103.000000, 215.000000)">
                            <path id="南盛镇" class="area" d="M45.5168954,277.850904 C46.7521107,277.71973 55.7702754,279.228223 56.3168309,279.228223 C56.8633863,279.228223 61.2358299,275.533509 61.3670032,274.025016 C61.4981765,272.516523 64.0997804,273.47846 67.1167664,272.385349 C70.1337524,271.292238 66.974662,267.335177 69.9807169,264.875678 C72.9867718,262.416178 72.5823208,261.323067 72.7134941,257.366006 C72.8446674,253.408944 75.7195491,253.398013 79.5454371,249.976576 C83.3713252,246.555139 78.5944307,246.292793 81.0429991,244.653126 C83.4915674,243.01346 85.153096,243.286738 86.9239356,239.187572 C88.6947752,235.088406 86.9239356,239.187572 88.6947752,238.498912 C90.4656149,237.810252 90.7498237,232.082351 87.1972133,229.896129 C83.644603,227.709908 85.153096,226.474692 85.153096,224.572679 C85.153096,222.670666 88.5636019,221.971075 87.3393177,218.014014 C86.1150335,214.056953 86.6506579,216.636694 88.4324286,215.41241 C90.2141994,214.188126 91.4275524,211.586522 91.9741079,206.798696 C92.5206633,202.010871 92.5206633,205.989794 95.1222672,203.114913 C96.98511,201.076699 98.2617881,198.572446 98.816982,195.867587 C98.9481553,194.774477 101.26555,191.090693 104.686987,191.232797 C108.108425,191.374902 110.556993,190.817415 112.196659,186.860354 C113.836326,182.903292 113.97843,180.979417 112.480868,178.377813 C110.983306,175.776209 109.671573,173.939783 110.972375,173.666505 C113.908454,172.64141 116.348742,170.544714 117.804318,167.7965 C119.30188,164.451581 116.853312,166.834562 114.186121,166.703389 C111.51893,166.572216 113.09301,166.288007 113.431875,165.468174 C113.770739,164.648341 111.387757,163.970612 110.633511,162.811914 C109.879264,161.653217 108.698704,159.532582 109.693435,157.750811 C110.688166,155.96904 111.606379,157.750811 114.339157,157.83826 C117.071934,157.925709 117.891767,157.564982 117.443591,155.291312 C116.995416,153.017641 115.705545,154.28565 114.339157,153.837474 C112.972768,153.389299 112.69949,153.378367 112.972768,152.099428 C113.246046,150.820488 112.79787,148.645197 112.426212,144.994207 C112.054555,141.343217 112.251315,140.895041 112.524592,140.895041 C112.79787,140.895041 114.164259,141.627425 114.612434,144.086925 C115.06061,146.546424 116.525378,145.180036 118.984878,144.174374 C121.444377,143.168712 119.531433,142.35981 119.903091,141.266699 C120.274749,140.173588 119.717262,139.528653 118.438322,138.435542 C117.159383,137.342431 114.251708,137.615709 113.246046,136.435149 C112.240384,135.254589 115.005954,128.848959 117.618489,128.444508 C120.231024,128.040057 119.40026,128.991064 122.821697,132.674847 C126.243134,136.358631 128.418425,134.041236 130.123678,133.155816 C131.828931,132.270396 131.763344,132.128292 131.763344,131.308459 C131.763344,130.488626 133.545115,128.848959 136.616756,128.302404 C139.688398,127.755848 138.387596,126.870429 136.890034,126.804842 C135.610264,126.794201 134.332436,126.702928 133.064146,126.531564 C130.877924,126.258286 132.113139,126.116182 131.490066,126.455046 C130.866993,126.793911 129.8504,128.575682 128.691702,128.171231 C127.364331,127.585239 126.228117,126.638394 125.41237,125.438453 C124.52695,124.203238 125.270265,124.072065 126.571067,123.92996 C127.871869,123.787856 127.259727,123.92996 129.642709,122.978954 C132.025691,122.027947 132.036622,122.224707 134.299361,122.224707 C136.562101,122.224707 136.74793,121.820256 137.228898,120.923905 C137.709867,120.027554 137.097725,118.191128 137.097725,117.163604 C137.097725,116.13608 136.55117,115.600455 135.458059,114.572931 C134.353656,113.573638 133.367097,112.451381 132.517591,111.228012 C131.216789,109.446241 132.517591,108.418717 130.877924,107.063259 C129.238258,105.707802 130.473473,104.046273 131.020029,102.953162 C131.566584,101.860052 131.828931,101.116736 134.911503,100.635767 C137.994076,100.154799 137.502176,97.0175704 139.688398,96.1977372 C141.87462,95.377904 141.120373,96.6021882 142.628866,95.6511818 C144.137359,94.7001753 143.109835,95.0390397 144.202946,94.4159665 C145.296057,93.7928933 145.634921,95.5855951 147.132483,95.9244595 C148.630045,96.2633239 147.679038,94.2082754 147.679038,92.5030224 C147.679038,90.7977694 148.225594,91.2131516 150.696025,91.0710472 C153.166455,90.9289428 152.805729,92.4374358 153.352284,91.6831893 C153.898839,90.9289428 153.898839,89.9779363 155.472919,89.2892764 C157.046999,88.6006166 159.364394,89.3657942 160.11864,89.4313808 C160.872887,89.4969675 160.457505,90.7321828 161.69272,91.6831893 C162.927935,92.6341957 163.124695,91.8252937 164.425497,92.1641581 C165.726299,92.5030224 166.13075,92.7763001 167.289448,92.4374358 C167.836135,92.3139361 168.279956,91.9162838 168.462525,91.3863898 C168.645093,90.8564959 168.540397,90.2698583 168.185799,89.8358319 C167.431552,88.742721 167.01617,87.9994056 167.562725,87.3107457 C168.297045,85.7359601 168.324879,83.9227433 167.639243,82.3261601 C166.808479,80.4132161 165.584195,81.7796047 164.075702,80.9597715 C162.567209,80.1399383 163.2668,79.4512785 164.075702,77.8116122 C164.884604,76.1719458 164.764362,75.2209394 164.906466,72.4881622 C165.04857,69.755385 165.715368,68.6622741 167.639243,66.4760523 C169.563118,64.2898305 167.355034,63.3388241 166.677306,61.5570533 C165.999577,59.7752826 166.677306,57.0971609 166.404028,55.4574946 C166.13075,53.8178283 166.13075,53.4461706 168.131143,51.9048842 C170.131536,50.3635979 171.410476,49.9919402 173.968355,48.8004493 C176.526235,47.6089585 175.509642,46.253501 175.608022,44.1547281 C175.706401,42.0559552 177.149308,42.5150618 178.887354,40.2413911 C180.6254,37.9677205 182.800691,38.4158959 184.626186,37.421165 C186.451681,36.4264341 187.173135,35.1365633 188.90025,34.9616656 C190.627365,34.7867678 190.813194,33.7701747 190.17919,32.0430595 C189.545185,30.3159443 192.299825,26.8507828 193.327349,23.4402769 C194.354873,20.0297709 191.064609,21.5164017 190.452467,21.046364 C189.840325,20.5763263 185.129017,18.1058957 182.866278,17.0127849 C180.603538,15.919674 178.887354,17.1986137 177.739588,18.7836245 C176.591821,20.3686353 176.646477,19.5160088 175.192639,19.5160088 C173.738802,19.5160088 173.552973,18.83828 173.826251,17.832618 C174.099529,16.826956 175.782919,16.7395071 177.695863,16.1929517 C179.608807,15.6463963 178.788974,14.6953898 178.471972,13.5476234 C178.15497,12.3998569 176.602752,13.5476234 175.334744,13.7771767 C174.066735,14.0067299 173.695077,13.5038989 172.776864,12.6840658 C172.000017,11.8861649 171.027648,11.3057585 169.956638,11.000675 C168.043694,10.1808418 166.447752,15.1872897 164.906466,15.919674 C163.36518,16.6520583 163.124695,14.8265631 163.037246,13.2306212 C162.949797,11.6346793 163.2668,11.503506 164.808086,10.1808418 C166.349372,8.85817768 162.392311,4.57318302 159.889087,2.93351669 C157.385863,1.29385037 157.112585,0.659846058 153.199248,0.933123778 C149.285911,1.2064015 149.001703,11.1318483 149.001703,12.2249592 C149.001703,13.3180701 142.989593,16.8706804 140.901751,16.7832316 C138.813909,16.6957827 137.797316,12.6840658 136.15765,12.6840658 C134.517983,12.6840658 132.430142,18.5103468 131.337031,19.5160088 C130.24392,20.5216708 124.778365,20.4232908 124.778365,20.4232908 L122.318866,16.5099539 L121.225755,10.4103951 L122.318866,7.57923795 L116.853312,6.94523363 L116.120927,10.497844 L110.294646,9.31728425 L103.82343,1.66550807 L103.82343,6.0379516 C103.82343,6.0379516 102.54449,9.40473312 99.4509863,7.4043402 C96.3574825,5.40394729 99.0902597,1.93878579 99.0902597,1.93878579 L94.2587096,2.48534123 C94.2587096,2.48534123 94.4445385,7.49178907 94.0728808,7.95089565 C93.7012231,8.41000222 95.6250982,9.59056197 96.9914868,11.3176772 C98.3578754,13.0447924 95.0785428,19.7783554 95.0785428,19.7783554 C95.0785428,19.7783554 93.9198453,22.653237 93.0234943,21.2212618 C92.1271434,19.7892865 89.7441617,19.5160088 87.9077354,19.9969776 C86.0713091,20.4779464 87.4267666,23.954039 84.9016805,25.1236676 C82.3765943,26.2932963 83.7320518,29.4961111 83.7320518,29.4961111 C83.7320518,29.4961111 82.2344899,29.6928711 79.9826815,30.0426666 C77.7308731,30.3924621 79.1628483,33.9341413 76.0802756,34.1309013 C72.997703,34.3276612 72.1232142,36.0547764 72.1232142,36.0547764 L66.7888331,36.0547764 C58.5905015,36.8636785 56.5463842,48.7567249 56.2731064,48.7567249 C55.9998287,48.7567249 52.0318362,46.6360898 51.4196941,46.3628121 C50.807552,46.0895343 47.0472506,44.2531081 43.767918,45.4773923 C40.4885853,46.7016764 42.4015293,50.7352556 42.4015293,50.7352556 L46.8504906,52.1016442 L50.807552,55.9931189 L48.8071591,58.3870318 C48.8071591,58.3870318 47.7140482,55.796359 46.9160773,55.5886679 C46.9160773,55.5886679 44.0411957,55.5230813 42.9480848,55.5886679 C41.8549739,55.6542546 40.6306897,60.8465313 40.6306897,60.8465313 L39.05661,67.1319188 L42.1282516,70.7501159 C42.1282516,70.7501159 38.7833323,70.1379738 38.0290858,69.9412138 C37.2748393,69.7444538 36.5315239,70.7501159 36.5315239,72.7395777 C36.5315239,74.7290395 39.3954744,84.6982107 39.3954744,84.6982107 C38.9291605,85.4041208 38.3535548,86.0313835 37.6902214,86.5564992 C36.7829394,87.2014346 36.8266638,91.3880493 36.8266638,91.3880493 L38.2367769,93.36658 L31.8092849,93.36658 C29.7651675,93.36658 28.2676056,94.7329686 27.1744948,96.7224304 C26.0813839,98.7118922 27.6445324,104.570967 28.5299522,106.964879 C29.4153721,109.358792 33.7987467,109.905348 33.7987467,109.905348 L36.2582462,112.638125 L38.652159,116.464013 L37.2748393,119.39355 C35.4655571,119.331912 33.6555736,119.493452 31.8858027,119.874519 C29.4263032,120.486661 30.5850007,123.427129 30.3773096,126.367598 C30.1696186,129.308066 29.2841988,128.892684 29.2841988,128.892684 C27.3398486,128.09349 25.1207732,128.353829 23.4141933,129.581344 C20.1348607,131.625461 20.6158295,138.457404 20.6158295,138.457404 C20.6158295,138.457404 12.6798444,134.839207 10.0891717,138.457404 C7.49849886,142.075601 13.7292309,146.10918 13.7292309,146.10918 C13.7292309,146.10918 16.8336658,148.841957 15.0081706,149.388513 C13.2440227,150.109778 12.0439975,151.772004 11.9146668,153.673507 C12.0895646,154.854067 17.555119,159.598168 17.555119,159.598168 L23.2065022,160.418002 L24.5400975,163.150779 L24.5400975,168.616333 C21.9603558,173.163674 24.5400975,175.809003 24.5400975,175.809003 L25.5348284,180.728002 C25.5348284,180.728002 23.8951621,184.695994 23.8951621,185.920278 C23.8951621,187.144563 20.7470028,189.472889 20.7470028,189.472889 C19.1947853,190.106893 20.7470028,192.817808 18.9761631,194.872857 C17.2053235,196.927905 19.7194785,201.90156 19.0417498,205.661861 C18.364021,209.422162 22.0478047,211.061829 22.0478047,211.061829 C22.0478047,211.061829 23.0206734,210.788551 20.8344516,213.335499 C18.6482299,215.882448 22.0259425,218.801054 22.0259425,218.801054 C20.3862762,219.806716 22.1133914,223.446775 22.1133914,223.446775 C22.1133914,223.446775 26.4858349,229.098158 22.7473957,231.098551 C19.0089565,233.098944 20.069274,235.175855 19.468063,236.564106 C18.866852,237.952356 21.2389027,240.051129 17.8283967,241.275414 C14.4178907,242.499698 14.0025086,243.745844 14.046233,245.38551 C14.0899575,247.025177 13.6745753,247.834079 12.4502912,248.43529 C11.226007,249.036501 8.07784763,248.708568 8.07784763,251.441345 C8.07784763,254.174122 6.98473675,253.255909 4.97341272,253.802464 C2.9620887,254.34902 4.8203772,257.081797 2.08759999,259.661539 C-0.645177215,262.24128 0.513520321,265.400371 0.513520321,267.17121 C0.513520321,268.94205 6.71145903,274.822987 9.17095851,277.676006 C11.630458,280.529025 15.3579661,279.315672 15.3579661,279.315672 C20.3753451,281.95007 21.5559048,278.769117 22.6490157,278.036733 L27.4805658,274.7574 L29.8963408,274.7574 C30.4361395,277.313525 31.6603042,279.674954 33.4380201,281.589343 L40.2043765,277.42459 L45.5168954,277.850904 Z" stroke="#000000" fill-opacity="0.4" fill="#0093FF"></path>
                            <text font-family="PingFangSC-Regular, PingFang SC" font-size="14" font-weight="normal" fill="#FFFFFF">
                                <tspan x="69" y="100">南盛镇</tspan>
                            </text>
                            <ellipse id="dian" class="dian" fill-opacity="0.3" fill="#FFFFFF" fill-rule="nonzero" cx="89.7332286" cy="111.735772" rx="4.73322857" ry="4.73577236"></ellipse>
                        </g>
                        <g id="思劳镇" transform="translate(365.000000, 0.000000)">
                            <path id="思劳镇" class="area" d="M118.085343,193.546213 L113.865935,187.927623 L118.784934,174.077908 L113.592658,172.798968 L118.063481,166.338683 L116.697092,160.774749 L118.784934,158.588527 L120.971156,157.222138 L120.883707,150.576024 L118.784934,147.38414 L118.336759,143.284975 L115.144875,141.284582 L113.144482,141.284582 L112.597927,140.104022 L114.051764,137.458694 L117.790203,139.459086 L122.709202,139.918193 L123.802313,141.918586 L126.53509,143.744081 L128.808761,147.296691 L134.274315,149.94202 C134.274315,149.94202 134.90832,147.023414 136.099811,146.116132 C137.103645,145.259142 138.465566,144.952403 139.73987,145.296299 C140.83923,145.842556 142.07203,146.062563 143.29248,145.930303 C144.658869,145.657025 144.932147,141.645308 144.932147,141.645308 L148.211479,147.023414 C148.211479,147.023414 152.223196,148.477251 154.223589,147.930696 C156.223982,147.38414 158.322755,142.191864 158.322755,142.191864 L159.055139,137.458694 L160.323148,133.272079 C159.754652,131.680868 159.021958,130.153201 158.136926,128.713806 C157.415473,127.981422 152.124816,127.259969 152.124816,127.259969 C152.124816,127.259969 155.174595,121.477412 153.677034,119.291191 C150.81692,115.768442 147.102712,113.036411 142.888029,111.355206 C142.888029,111.355206 150.124423,109.584366 150.758428,104.30464 C150.758428,104.30464 156.475397,102.205868 156.223982,98.9921215 C155.972566,95.7783755 153.972174,95.7127889 153.972174,95.7127889 C153.972174,95.7127889 153.841,92.3022829 154.72642,91.7557275 C155.67869,91.2927219 156.717889,91.0357158 157.776199,91.001481 C159.142588,90.7937899 160.64015,89.2306414 160.377803,87.8533216 C161.880762,87.5327827 162.941953,86.1867702 162.902889,84.6505068 C162.902889,81.9177296 161.602087,81.3711741 161.602087,81.3711741 C161.602087,81.3711741 160.924359,75.6979286 162.968476,74.4736444 C164.455372,73.5432428 165.892926,72.5362237 167.275333,71.4566584 L168.641722,64.9745109 L170.959117,60.3943763 L172.948578,57.9348768 L173.626307,54.8632352 L173.014165,51.8571803 L168.434031,51.1029338 L166.105704,52.4037357 L162.881027,46.0964859 L157.229644,45.6373794 L156.049084,39.6252695 L160.235699,33.3398819 L159.689143,30.333827 L158.956759,22.7694997 L157.229644,18.3970562 C157.229644,18.3970562 158.508584,13.8497149 157.502922,12.658224 C156.378274,11.6927916 155.079766,10.9507865 153.677034,10.4720023 L154.496867,0 L152.496474,0 L146.845091,4.09916581 L126.349262,15.3910012 L124.250489,14.4837192 L118.511656,9.47727135 L117.418546,7.56432731 L108.039654,7.56432731 L106.12671,11.2043865 L104.301215,13.5764372 L104.301215,16.4841121 L106.214159,18.4954361 L102.934826,23.501884 L103.481382,25.8302102 L100.748605,29.033025 L100.475327,31.7658023 L99.4478027,36.4771102 L96.6494388,39.2864051 L94.4632171,41.680318 L88.3199339,41.680318 C88.3199339,41.680318 83.6742127,38.5977453 82.100133,38.5321586 C80.5260533,38.466572 74.3062524,40.8495537 74.3062524,40.8495537 L69.5293578,41.177487 C69.3872534,41.177487 65.1569143,40.6746559 65.1569143,40.6746559 L62.4241371,43.3199843 L63.3751436,46.7304902 L60.3800197,51.1029338 L58.4561446,51.9227669 L55.7233674,54.1089887 L51.3509239,53.0158778 L44.7922586,57.7927724 L38.2335933,64.1328155 L37.5121401,67.8603236 L34.8668117,70.5931008 L34.8668117,74.4189889 L38.4194221,75.7853775 L35.7740938,78.244877 L34.5060852,80.9776542 L29.8603639,81.6225896 L24.7555361,84.2569868 L25.3895404,89.2743658 L28.0348687,91.1873098 L27.1275867,93.8217071 L22.6567632,94.0075359 L19.6507083,93.5484293 L15.4640936,94.0075359 L11.9989321,94.1933648 L9.99853916,89.8209212 L7.99814625,85.6233754 L2.25931411,87.8095972 L0.892925507,91.908763 L2.70748957,97.3743174 L4.62043362,101.200206 L7.72486852,103.932983 L4.25970703,109.223639 L4.62043362,112.502972 L8.27142397,112.863699 L12.6438675,115.410647 L13.3653207,118.515082 L13.1904229,121.247859 L10.6325435,121.696035 L10.6325435,125.620303 L13.3653207,125.7952 L16.6446533,123.707359 L19.2025328,122.887525 L23.6624252,121.335308 L26.854309,119.061637 L29.7619839,118.329253 L32.0465857,118.416702 L35.3259183,120.930857 L38.1898688,121.881863 L39.9607085,123.52153 L41.6003748,126.254307 L42.5623124,130.900028 L40.3760906,134.310534 L40.7914727,138.136422 L41.7424792,142.65097 L42.8355901,145.788198 L43.1088678,147.712074 L45.2950896,149.482913 L47.2080336,152.084517 L46.9347559,155.36385 L46.8035826,158.905529 L49.252151,161.37596 L46.2570271,164.371083 L41.4692015,167.245965 L41.1959238,171.071853 L42.6934857,175.039846 L41.8845836,176.679512 L39.6983618,178.034969 L37.5340023,180.090018 L37.7198311,183.008624 L38.812942,185.096466 L42.3655524,186.736132 L43.0870056,184.54991 L43.8193899,187.00941 L43.731941,189.840567 L44.2784964,193.1199 L45.7323339,198.672903 L46.6942715,203.86518 L49.558222,204.816186 C49.558222,204.816186 51.3290616,208.237623 52.4221725,208.30321 C53.5152834,208.368796 54.1383566,208.445314 54.1383566,208.445314 L55.7015052,209.330734 L57.690967,209.057456 L57.1444115,206.53237 L57.1444115,204.411735 L58.9152512,205.231568 L61.1014729,205.231568 L62.6099659,204.072871 L63.7030768,203.17652 L64.927361,202.914173 L65.8892986,203.045346 L66.5670273,200.924711 L68.4799714,201.40568 L69.1030446,202.837655 L69.2342179,204.685013 L69.9119466,205.909297 L72.2402728,211.243678 L75.8803321,210.609674 L77.979105,211.156229 L80.4386044,209.057456 L83.5321082,208.423452 L85.0843257,205.504846 L89.8174958,205.504846 L91.8288198,206.13885 L96.3761611,199.951843 L100.748605,198.312176 L105.121048,193.939733 L113.505209,197.033237 L114.412491,193.568075 L118.085343,193.546213 Z" stroke="#000000" fill-opacity="0.4" fill="#0093FF"></path>
                            <text font-family="PingFangSC-Regular, PingFang SC" font-size="14" font-weight="normal" fill="#FFFFFF">
                                <tspan x="69" y="98">思劳镇</tspan>
                            </text>
                            <ellipse id="dian" class="dian" fill-opacity="0.3" fill="#FFFFFF" fill-rule="nonzero" cx="89.7332286" cy="109.735772" rx="4.73322857" ry="4.73577236"></ellipse>
                        </g>
                        <g id="腰古镇" transform="translate(331.000000, 184.000000)">
                            <path id="腰古镇" class="area" d="M149.899121,9.5462129 L148.412491,9.5462129 L147.505209,13.0113744 L139.121048,9.9178706 L134.748605,14.2903141 L130.376161,15.9299805 L125.82882,22.1169881 L123.817496,21.4829837 L119.084326,21.4829837 L117.532108,24.4015898 L114.438604,25.0355941 L111.979105,27.134367 L109.880332,26.5878116 L106.240273,27.2218159 C106.240273,27.2218159 109.792883,32.960648 107.879939,34.0537589 C106.396904,35.1093282 105.128206,36.4373799 104.1415,37.9670959 C99.4957787,40.6124242 104.054051,49.2698624 104.054051,49.2698624 L107.060106,54.5495879 L103.420047,57.5556429 C103.420047,57.5556429 104.688055,58.9220315 98.5010478,59.6544158 C92.3140402,60.3868001 91.2099982,65.6665256 91.2099982,70.0389692 C91.2099982,74.4114127 83.6456709,74.8595881 82.9242177,75.2312458 C81.3009539,75.5350242 79.6382544,75.5645833 78.0052187,75.3186947 C77.0870056,75.1328659 77.0870056,73.7664773 75.9938947,73.2199218 C74.9007838,72.6733664 73.4469463,74.138135 73.4469463,74.138135 L72.4412843,73.6790284 L71.1732757,74.2255838 L68.7137762,75.5045236 L67.6206653,76.4118056 L67.2490076,74.4988616 L65.7951702,75.7778013 L63.969675,76.4118056 L63.6963973,78.6854762 L64.5162304,80.3251426 L62.1551109,80.3251426 C62.1551109,80.3251426 59.3239537,79.5053094 58.8757783,78.8713051 C58.4276028,78.2373008 54.4049548,76.7725322 54.4049548,76.7725322 C52.1009295,76.0988378 49.7618333,75.5514674 47.398114,75.1328659 C45.8458966,75.045417 43.7471237,74.3130327 41.9325596,74.3130327 C40.1179955,74.3130327 41.5609019,77.1441899 41.5609019,77.1441899 C40.25889,78.0137266 38.852207,78.7152317 37.3742872,79.2320317 C35.8220698,79.6036894 37.4617361,81.6040823 35.7346209,81.9648089 C34.0075057,82.3255355 30.728173,83.7903041 29.3617844,83.6481996 C27.9953958,83.5060952 25.6233452,85.3643837 25.6233452,85.3643837 C25.6233452,85.3643837 25.4156542,87.0040501 24.399061,87.0040501 C23.2799402,87.2446508 22.2134497,87.6853187 21.2509017,88.304852 L18.1027423,87.8894699 C18.1027423,87.8894699 17.4250136,86.9275323 14.4189587,87.2117411 C11.4129037,87.4959499 11.6861815,92.3930867 11.6861815,92.3930867 L10.3197929,92.5351911 L9.4999597,94.7214129 L10.9975216,98.8205787 C10.9975216,98.8205787 9.35785529,100.591418 8.40684882,101.553356 C7.45584235,102.515293 8.1335711,105.510417 8.1335711,106.472355 C8.1335711,107.434292 3.94695642,113.763404 3.94695642,113.763404 C3.94695642,113.763404 1.21417921,114.758135 0.755072639,115.403071 C0.295966068,116.048006 3.40040098,120.682796 3.40040098,120.682796 L6.49390477,121.229352 C5.40079389,124.093302 5.81617603,128.749955 7.45584235,128.749955 C9.09550867,128.749955 10.3197929,130.936176 10.0465151,132.291634 C9.77323742,133.647091 8.68012654,136.664077 8.54895323,137.626015 C8.41777993,138.587953 11.139626,140.085515 11.139626,140.085515 C10.6475474,141.120072 10.3263821,142.227538 10.1886196,143.364847 C10.1886196,144.600062 16.3319027,148.141742 18.1027423,148.557124 C19.873582,148.972506 20.2889641,152.929567 21.1197284,155.531171 C21.9504927,158.132775 26.7164561,158.416984 26.7164561,158.416984 L30.0613754,163.751365 C32.0508372,163.751365 37.5163916,167.030698 41.3422797,167.09687 C45.1681678,167.161871 55.5527212,161.696317 55.5527212,160.122237 C55.5527212,158.548157 52.5903907,153.957092 54.7766125,152.317425 C56.9628342,150.677759 62.0567309,151.858319 63.6963973,151.125934 C65.3360636,150.39355 64.7895082,144.119094 64.7895082,144.119094 C64.7895082,144.119094 67.8392875,148.578986 70.2550626,147.759153 C72.6708376,146.93932 72.7145621,143.845816 74.4416772,143.845816 C76.1687924,143.845816 81.0003425,144.020714 83.3723932,142.566876 C85.7444438,141.113039 88.1055633,137.462048 90.5650628,136.915493 C93.0245623,136.368938 85.9193415,124.443098 88.1055633,123.349987 C90.291785,122.256876 88.6521187,126.170213 91.9314514,126.53094 C95.210784,126.891666 95.5824417,129.635374 96.9488303,129.635374 C98.3152189,129.635374 100.676338,131.089212 101.321274,126.716768 C101.966209,122.344325 108.557668,115.370277 109.967781,116.649217 C111.377894,117.928157 110.787614,120.748383 113.749945,120.51883 C116.712275,120.289276 120.581888,117.654879 120.855165,116.146386 C121.016509,115.366649 121.078944,114.569686 121.040994,113.774336 C121.040994,113.774336 122.866489,116.102662 124.681053,115.741935 C125.666989,115.604236 126.435404,114.817847 126.550273,113.828991 C127.963065,114.154082 129.393915,114.394991 130.835268,114.550444 C131.829999,114.550444 136.47572,117.009944 136.47572,117.009944 C136.47572,117.009944 143.766769,119.196166 145.220607,120.748383 C146.674444,122.3006 149.046495,123.48116 147.865935,125.94066 C146.685375,128.400159 145.133158,129.307441 145.493885,130.67383 C145.854611,132.040218 148.871597,134.412269 152.15093,133.953162 C155.430263,133.494056 168.492938,136.139384 171.77227,134.958824 C175.051603,133.778265 176.01354,127.72243 176.01354,127.72243 L177.620413,127.099357 L178.37466,131.679492 C178.37466,131.679492 192.956759,133.996887 195.274154,133.319158 C197.591549,132.641429 198.006931,128.815541 198.006931,128.815541 L202.521479,131.26411 L208.675694,126.345111 L215.824639,123.437436 L220.328256,121.524492 L220.328256,129.318372 L222.110026,133.14426 L224.02297,132.860052 L224.02297,120.158103 L225.79381,114.692549 L225.79381,110.046827 L223.815279,103.422576 L225.454946,100.143243 L224.984908,98.0881944 L226.143606,93.5080598 L219.7817,90.0975538 L219.694251,86.4028391 L209.681356,74.5863104 L206.872061,73.1543352 L206.66437,66.0491144 L203.385037,62.1357775 L204.390699,57.664954 C204.390699,57.664954 210.719811,54.3856213 210.719811,51.3358419 C210.719811,48.2860626 208.172863,45.0941788 208.172863,45.0941788 C208.172863,45.0941788 205.986641,38.8087912 208.172863,37.9889581 C209.747623,37.3595332 211.220953,36.5013182 212.545306,35.4420097 C212.545306,35.4420097 216.371194,33.6821012 216.731921,31.8238127 C217.092647,29.9655242 221.104364,15.678565 219.88008,12.3992323 C218.655796,9.11989966 218.557416,5.97174031 215.73719,5.92801588 C213.782458,5.92861155 211.830767,6.0821153 209.899978,6.38712245 C209.899978,6.38712245 208.588245,1.3697435 206.620645,0.921568035 C205.041476,0.640084298 203.41479,0.814507524 201.9312,1.42439904 C201.526748,1.69767676 202.029579,1.05274134 199.110973,1.19484576 C196.192367,1.33695017 196.421921,1.59929678 195.831641,2.56123436 C195.241361,3.52317194 192.825586,2.41912994 190.726813,3.78551855 C188.62804,5.15190715 186.726027,6.51829575 186.726027,6.51829575 C186.726027,6.51829575 180.068982,0.8778436 175.204638,1.97095448 C170.340295,3.06406537 160.513228,10.8688771 160.513228,10.8688771 L157.299482,13.3502388 L151.014095,12.57413 L149.899121,9.5462129 Z" stroke="#000000" fill-opacity="0.4" fill="#0093FF"></path>
                            <text font-family="PingFangSC-Regular, PingFang SC" font-size="14" font-weight="normal" fill="#FFFFFF">
                                <tspan x="151" y="81">腰古镇</tspan>
                            </text>
                            <ellipse id="dian" class="dian" fill-opacity="0.3" fill="#FFFFFF" fill-rule="nonzero" cx="171.733229" cy="92.7357724" rx="4.73322857" ry="4.73577236"></ellipse>
                        </g>
                        <g id="前锋镇" transform="translate(103.000000, 218.000000)">
                            <path id="前锋镇" class="area" d="M195.076326,19.8937214 L197.535826,20.2325858 L201.427301,22.5499809 L205.592053,19.751617 L201.154023,16.2645933 C200.967691,15.1822356 201.613284,14.1296387 202.662516,13.8050938 C204.564529,12.919674 205.526466,15.0403091 206.411886,15.5868645 C207.332433,16.3269288 208.552723,16.579122 209.691219,16.2645933 C210.926434,15.7836245 210.926434,13.8816116 210.860847,12.0998408 C210.795261,10.3180701 211.66975,7.51970622 213.45152,7.32294626 C215.233291,7.1261863 216.326402,7.2464285 216.249884,5.81445324 C216.173366,4.38247799 215.0256,2.80839832 215.637742,2.60070725 C216.249884,2.39301618 222.261994,2.60070725 223.562796,2.46953394 C224.863598,2.33836064 227.257511,0.895454271 229.574906,0.556589897 C231.892301,0.217725523 231.48785,2.80839832 234.220627,1.50759637 C236.953404,0.206794415 236.406849,1.50759637 240.440428,2.11973846 C244.474007,2.73188055 241.916128,5.81445324 243.555794,6.27355981 C245.19546,6.73266638 243.238792,9.55289246 243.654174,10.8209011 C244.069556,12.0889097 238.09024,16.5160088 238.549346,17.4779464 C239.008453,18.4398839 237.292269,20.9103145 237.292269,20.9103145 L238.18862,22.3422898 L241.806817,20.6370368 L241.533539,23.6430917 L242.692236,26.2446956 C242.692236,26.2446956 241.599126,29.1851639 240.637188,31.6337323 C239.67525,34.0823007 243.031101,37.2413911 245.151736,37.5802555 C247.272371,37.9191199 245.698291,42.7069455 243.916521,43.3956054 C242.13475,44.0842652 245.217323,48.1069133 244.397489,48.576951 C243.577656,49.0469887 244.965907,52.5886679 244.965907,52.5886679 C244.965907,52.5886679 245.425014,52.9493945 242.418959,53.2336033 C239.412904,53.5178122 239.686181,58.4149489 239.686181,58.4149489 L238.319793,58.5570533 L237.49996,60.7432751 L238.997522,64.8424409 C238.997522,64.8424409 237.357855,66.6132805 236.406849,67.5752181 C235.455842,68.5371557 236.133571,71.5322795 236.133571,72.4942171 C236.133571,73.4561547 231.946956,79.7852667 231.946956,79.7852667 C231.946956,79.7852667 229.214179,80.7799976 228.755073,81.424933 C228.295966,82.0698684 231.400401,86.7046586 231.400401,86.7046586 L234.493905,87.251214 C233.400794,90.1151645 233.816176,94.7718169 235.455842,94.7718169 C237.095509,94.7718169 238.319793,96.9580386 238.046515,98.3134961 C237.773237,99.6689536 236.680127,102.68594 236.548953,103.647877 C236.41778,104.609815 239.139626,106.107377 239.139626,106.107377 C238.647547,107.141934 238.326382,108.249401 238.18862,109.386709 C238.18862,110.621925 244.331903,114.163604 246.102742,114.578986 C247.873582,114.994368 248.288964,118.95143 249.119728,121.553034 C249.950493,124.154637 254.716456,124.416984 254.716456,124.416984 L258.061375,129.751365 L253.984072,131.937587 L253.07679,136.495859 L248.34362,137.58897 L243.872796,143.874358 C242.878065,144.508362 238.931935,156.652824 236.680127,157.811521 C234.428318,158.970219 221.988716,158.48925 220.042979,158.565768 C218.097242,158.642286 214.096456,155.417609 213.484314,154.73988 L211.298092,154.947571 C211.298092,154.947571 208.434141,158.226904 206.171402,156.237442 C203.908662,154.24798 198.180761,154.258911 195.382397,154.805467 C193.742365,155.109946 192.211585,155.841402 190.944367,156.926102 C184.046838,155.898577 183.150487,164.851156 182.811622,168.873804 C182.472758,172.896452 170.514125,178.165246 170.514125,178.165246 L158.763183,178.99601 L154.532844,185.00812 L150.870922,197.928691 L144.312257,208.586522 C144.312257,208.586522 148.815874,219.583217 149.646638,221.364988 C150.477402,223.146759 146.083097,225.945123 146.083097,225.945123 L144.312257,227.30058 L144.038979,230.864122 C144.038979,230.864122 139.524431,232.219579 136.791654,231.126468 C134.058877,230.033358 134.605432,221.157297 134.605432,221.157297 L134.474259,215.560569 L132.01476,215.560569 L130.648371,220.741915 C130.648371,220.741915 122.635868,230.864122 121.225755,231.082744 C119.815642,231.301366 114.86385,231.749542 114.86385,231.749542 L112.40435,233.662486 C112.40435,233.662486 113.224183,234.69001 113.836326,235.302152 C114.448468,235.914294 113.366288,239.532491 113.366288,239.532491 C113.366288,239.532491 112.743215,244.385903 112.131073,246.91099 C111.51893,249.436076 112.950906,250.540118 112.950906,251.829989 C112.929045,252.641655 112.614594,253.418079 112.065486,254.01621 C112.065486,254.01621 111.934313,254.912561 111.51893,257.36113 C111.103548,259.809698 104.544883,261.6024 104.206019,262.48782 C103.867154,263.373239 107.015314,264.750559 108.578462,265.84367 C110.141611,266.936781 109.562262,268.029892 109.562262,268.663896 C109.222667,269.998787 108.491789,271.20169 107.463489,272.118126 C106.370378,273.211237 107.463489,273.899897 107.463489,273.899897 C107.463489,273.899897 108.829878,273.812448 110.239991,273.670344 C111.650104,273.52824 113.158597,275.856566 113.158597,275.856566 C113.158597,275.856566 115.25737,278.228616 115.344819,279.496625 C115.063032,281.844612 113.556753,283.866855 111.387757,284.809144 C108.786153,285.825737 106.39224,286.995366 106.39224,286.995366 L102.314937,289.837454 L97.9424933,292.482782 L98.9044309,294.669004 L98.5437043,295.488837 L95.5595116,297.762508 L94.5319873,299.06331 C94.5319873,299.06331 96.7837958,300.156421 97.1991779,301.796087 C97.61456,303.435753 95.7562715,305.829666 95.0785428,306.299704 C94.400814,306.769741 90.0939572,306.846259 88.1044954,306.846259 C86.1150335,306.846259 82.7154587,309.032481 82.7154587,309.032481 C83.3498898,310.698359 83.7401586,312.447204 83.8741562,314.224758 C84.0162607,316.891948 81.8300389,323.177336 81.8300389,323.177336 C83.9239021,323.159822 86.0133507,323.372432 88.0607709,323.81134 C91.3401036,324.543724 86.2462069,337.300328 86.2462069,337.300328 C86.2462069,337.300328 82.4203188,340.852939 80.6822725,341.213665 C78.9442262,341.574392 79.5891616,346.591771 78.0478752,346.766669 C76.5065889,346.941566 69.4778859,344.580447 69.4778859,344.580447 C69.4778859,344.580447 67.073042,347.291362 65.6957223,347.433466 C64.3184025,347.575571 63.1050495,349.477584 61.8042475,350.570695 C60.5034456,351.663805 59.2135747,354.811965 57.5739084,355.150829 C55.9342421,355.489694 48.1403615,354.844758 48.1403615,354.844758 L45.9322775,342.678434 L44.1067823,342.678434 L39.0128856,344.678827 L33.9080578,344.492998 L27.7101191,349.05127 C27.7101191,349.05127 20.7907272,346.132664 19.3368897,343.946443 C17.8830522,341.760221 16.4182837,348.690544 16.4182837,348.690544 L10.0454472,350.505108 L4.75479055,350.505108 L0.928902456,347.225775 L2.02201334,345.039553 L8.76650749,346.865049 L11.6851135,344.3181 L14.2320619,339.573999 L18.05795,337.21288 L19.2822342,333.933547 L20.976556,330.523041 L21.2061093,326.882982 L24.3433376,324.59838 C24.3433376,324.59838 27.3493925,322.740091 26.3874549,320.816216 C25.4255173,318.892341 27.0761148,315.766044 27.0761148,315.766044 L28.7157811,311.940156 L28.3113301,309.207379 L30.6287251,305.108213 L34.3234399,304.419553 C34.3234399,304.419553 31.4485583,297.314332 37.6027726,297.314332 C43.7569868,297.314332 43.1995003,293.630549 43.1995003,293.630549 L43.877229,286.929779 L41.4286607,282.01078 L39.9201676,278.184892 L40.259032,274.435522 L45.5168954,274.905559 C46.7521107,274.774386 55.7702754,276.282879 56.3168309,276.282879 C56.8633863,276.282879 61.2358299,272.588164 61.3670032,271.079671 C61.4981765,269.571178 64.0997804,270.533116 67.1167664,269.440005 C70.1337524,268.346894 66.974662,264.389833 69.9807169,261.930333 C72.9867718,259.470834 72.5823208,258.377723 72.7134941,254.420661 C72.8446674,250.4636 75.7195491,250.452669 79.5454371,247.031232 C83.3713252,243.609795 78.5944307,243.347448 81.0429991,241.707782 C83.4915674,240.068115 85.153096,240.341393 86.9239356,236.242227 C88.6947752,232.143062 86.9239356,236.242227 88.6947752,235.553567 C90.4656149,234.864908 90.7498237,229.137007 87.1972133,226.950785 C83.644603,224.764563 85.153096,223.529348 85.153096,221.627335 C85.153096,219.725322 88.5636019,219.025731 87.3393177,215.06867 C86.1150335,211.111608 86.6506579,213.69135 88.4324286,212.467066 C90.2141994,211.242781 91.4275524,208.641178 91.9741079,203.853352 C92.5206633,199.065526 92.5206633,203.04445 95.1222672,200.169568 C96.98511,198.131354 98.2617881,195.627101 98.816982,192.922243 C98.9481553,191.829132 101.26555,188.145348 104.686987,188.287453 C108.108425,188.429557 110.556993,187.872071 112.196659,183.915009 C113.836326,179.957948 113.97843,178.034073 112.480868,175.432469 C110.983306,172.830865 109.671573,170.994439 110.972375,170.721161 C113.908454,169.696065 116.348742,167.59937 117.804318,164.851156 C119.30188,161.506236 116.853312,163.889218 114.186121,163.758045 C111.51893,163.626871 113.09301,163.342663 113.431875,162.522829 C113.770739,161.702996 111.387757,161.025267 110.633511,159.86657 C109.879264,158.707872 108.698704,156.587237 109.693435,154.805467 C110.688166,153.023696 111.606379,154.805467 114.339157,154.892915 C117.071934,154.980364 117.891767,154.619638 117.443591,152.345967 C116.995416,150.072296 115.705545,151.340305 114.339157,150.89213 C112.972768,150.443954 112.69949,150.433023 112.972768,149.154083 C113.246046,147.875144 112.79787,145.699853 112.426212,142.048863 C112.054555,138.397872 112.251315,137.949697 112.524592,137.949697 C112.79787,137.949697 114.164259,138.682081 114.612434,141.141581 C115.06061,143.60108 116.525378,142.234691 118.984878,141.229029 C121.444377,140.223367 119.531433,139.414465 119.903091,138.321354 C120.274749,137.228244 119.717262,136.583308 118.438322,135.490197 C117.159383,134.397086 114.251708,134.670364 113.246046,133.489804 C112.240384,132.309245 115.005954,125.903615 117.618489,125.499164 C120.231024,125.094713 119.40026,126.045719 122.821697,129.729503 C126.243134,133.413287 128.418425,131.095892 130.123678,130.210472 C131.828931,129.325052 131.763344,129.182947 131.763344,128.363114 C131.763344,127.543281 133.545115,125.903615 136.616756,125.357059 C139.688398,124.810504 138.387596,123.925084 136.890034,123.859497 C135.610264,123.848857 134.332436,123.757583 133.064146,123.58622 C130.877924,123.312942 132.113139,123.170838 131.490066,123.509702 C130.866993,123.848566 129.8504,125.630337 128.691702,125.225886 C127.364331,124.639894 126.228117,123.693049 125.41237,122.493109 C124.52695,121.257894 125.270265,121.12672 126.571067,120.984616 C127.871869,120.842511 127.259727,120.984616 129.642709,120.033609 C132.025691,119.082603 132.036622,119.279363 134.299361,119.279363 C136.562101,119.279363 136.74793,118.874912 137.228898,117.978561 C137.709867,117.08221 137.097725,115.245784 137.097725,114.218259 C137.097725,113.190735 136.55117,112.655111 135.458059,111.627587 C134.353656,110.628293 133.367097,109.506036 132.517591,108.282667 C131.216789,106.500897 132.517591,105.473372 130.877924,104.117915 C129.238258,102.762457 130.473473,101.100929 131.020029,100.007818 C131.566584,98.9147071 131.828931,98.1713917 134.911503,97.6904229 C137.994076,97.2094541 137.502176,94.0722259 139.688398,93.2523928 C141.87462,92.4325596 141.120373,93.6568438 142.628866,92.7058373 C144.137359,91.7548308 143.109835,92.0936952 144.202946,91.470622 C145.296057,90.8475488 145.634921,92.6402507 147.132483,92.979115 C148.630045,93.3179794 147.679038,91.2629309 147.679038,89.557678 C147.679038,87.852425 148.225594,88.2678071 150.696025,88.1257027 C153.166455,87.9835983 152.805729,89.4920913 153.352284,88.7378448 C153.898839,87.9835983 153.898839,87.0325918 155.472919,86.343932 C157.046999,85.6552721 159.364394,86.4204497 160.11864,86.4860364 C160.872887,86.551623 160.457505,87.7868383 161.69272,88.7378448 C162.927935,89.6888513 163.124695,88.8799492 164.425497,89.2188136 C165.726299,89.557678 166.13075,89.8309557 167.289448,89.4920913 C167.836135,89.3685917 168.279956,88.9709393 168.462525,88.4410454 C168.645093,87.9111514 168.540397,87.3245139 168.185799,86.8904874 C167.431552,85.7973765 167.01617,85.0540611 167.562725,84.3654013 C168.297045,82.7906156 168.324879,80.9773989 167.639243,79.3808157 C166.808479,77.4678716 165.584195,78.8342602 164.075702,78.014427 C162.567209,77.1945939 163.2668,76.505934 164.075702,74.8662677 C164.884604,73.2266014 164.764362,72.2755949 164.906466,69.5428177 C165.04857,66.8100405 165.715368,65.7169296 167.639243,63.5307079 C169.563118,61.3444861 167.355034,60.3934796 166.677306,58.6117089 C165.999577,56.8299381 166.677306,54.1518165 166.404028,52.5121502 C166.13075,50.8724838 166.13075,50.5008261 168.131143,48.9595398 C170.131536,47.4182534 171.410476,47.0465957 173.968355,45.8551049 C176.526235,44.663614 175.509642,43.3081565 175.608022,41.2093836 C175.706401,39.1106107 177.149308,39.5697173 178.887354,37.2960467 C180.6254,35.022376 182.800691,35.4705515 184.626186,34.4758206 C186.451681,33.4810897 187.173135,32.1912188 188.90025,32.0163211 C190.627365,31.8414234 190.813194,30.8248302 190.17919,29.097715 C189.545185,27.3705999 192.299825,23.9054384 193.327349,20.4949324 L195.076326,19.8937214 Z" stroke="#000000" fill-opacity="0.4" fill="#0093FF"></path>
                            <text font-family="PingFangSC-Regular, PingFang SC" font-size="14" font-weight="normal" fill="#FFFFFF">
                                <tspan x="182" y="121">前锋镇</tspan>
                            </text>
                            <ellipse id="dian" class="dian" fill-opacity="0.3" fill="#FFFFFF" fill-rule="nonzero" cx="202.733229" cy="132.735772" rx="4.73322857" ry="4.73577236"></ellipse>
                        </g>
                        <g id="安塘镇" transform="translate(256.000000, 112.000000)">
                            <path id="安塘镇" class="area" d="M0.242972859,103.889399 C4.15630982,103.616122 4.42958754,104.250126 6.93281146,105.889792 C9.43603538,107.529459 13.4040279,111.814453 11.8518104,113.137117 C10.299593,114.459782 9.98259082,114.54723 10.0809708,116.186897 C10.1793508,117.826563 10.397973,119.597403 11.9501904,118.87595 C13.5024079,118.154496 15.0874186,113.137117 17.0003627,113.956951 C18.0713723,114.262034 19.0437415,114.84244 19.8205888,115.640341 C20.7388019,116.503899 21.0995285,117.00673 22.3784682,116.733452 C23.657408,116.460174 25.2424187,115.367064 25.5156965,116.503899 C25.7889742,117.640734 26.6088074,118.690121 24.7395877,119.149227 C22.8703681,119.608334 21.1432529,119.783232 20.8699752,120.788894 C20.5966975,121.794556 20.8699752,122.472284 22.2363638,122.472284 C23.6027524,122.472284 23.6464769,123.335842 24.7833122,121.7399 C25.9201475,120.143958 27.6581938,118.87595 29.9100022,119.96906 C32.1618106,121.062171 36.8840496,123.521671 37.4961917,124.00264 C38.1083338,124.483608 40.9941466,123.150013 40.5131778,125.806273 L40.3710734,126.396552 L42.0763263,125.849997 L44.5358258,126.188861 L48.4273006,128.506256 L52.592053,125.707893 L48.1540228,122.220869 C47.9676907,121.138511 48.6132835,120.085914 49.6625159,119.761369 C51.5645288,118.87595 52.5264664,120.996585 53.4118862,121.54314 C54.332433,122.283204 55.5527229,122.535398 56.6912188,122.220869 C57.9264341,121.7399 57.9264341,119.837887 57.8608475,118.056116 C57.7952608,116.274346 58.6697495,113.475982 60.4515203,113.279222 C62.233291,113.082462 63.3264019,113.202704 63.2498841,111.770729 C63.1733664,110.338754 62.0256,108.764674 62.637742,108.556983 C63.2498841,108.349292 69.261994,108.556983 70.5627959,108.42581 C71.8635979,108.294636 74.2575107,106.85173 76.5749058,106.512865 C78.8923009,106.174001 78.4878498,108.764674 81.2206271,107.463872 C83.9534043,106.16307 83.4068488,107.463872 87.440428,108.076014 C91.4740071,108.688156 88.9161277,111.770729 90.555794,112.229835 C92.1954603,112.688942 90.2387918,115.509168 90.654174,116.777177 C91.0695561,118.045185 85.0902396,122.472284 85.5493461,123.434222 C86.0084527,124.39616 84.2922686,126.86659 84.2922686,126.86659 L85.1886196,128.298565 L88.8068166,126.593312 L88.5335389,129.599367 L89.6922364,132.200971 C89.6922364,132.200971 88.5991255,135.141439 87.6371879,137.590008 C86.6752504,140.038576 90.0311008,143.197667 92.1517359,143.536531 C94.272371,143.875395 92.6982913,148.663221 90.9165206,149.351881 C89.1347498,150.040541 92.2173225,154.063189 91.3974894,154.533227 C90.5776562,155.003264 91.965907,158.544943 91.965907,158.544943 C91.965907,158.544943 92.2829092,158.796359 90.7088295,159.036843 L90.9055895,159.146154 C92.665498,159.244534 93.0918112,159.867608 93.0918112,159.867608 L96.2399706,160.28299 C97.2025186,159.663456 98.2690091,159.222789 99.3881299,158.982188 C100.404723,158.982188 100.612414,157.342522 100.612414,157.342522 C100.612414,157.342522 102.984465,155.495164 104.350853,155.626337 C105.717242,155.757511 108.996575,154.314604 110.72369,153.942947 C112.450805,153.571289 110.811139,151.581827 112.363356,151.210169 C113.841276,150.693369 115.247959,149.991864 116.549971,149.122328 C116.549971,149.122328 115.096133,146.29117 116.921628,146.29117 C118.747124,146.29117 120.834965,147.023555 122.387183,147.111004 C124.750902,147.529605 127.089998,148.076976 129.394024,148.75067 C129.394024,148.75067 133.405741,150.215439 133.864847,150.849443 C134.323954,151.483447 137.14418,152.30328 137.14418,152.30328 L139.505299,152.30328 L138.685466,150.663614 L138.958744,148.389943 L140.784239,147.755939 L142.238077,146.476999 L142.609734,148.389943 L143.702845,147.482661 L146.162345,146.203722 L147.430353,145.657166 L148.436015,146.116273 C148.436015,146.116273 149.889853,144.651504 150.982964,145.19806 C152.076074,145.744615 152.076074,147.111004 152.994288,147.296832 C154.627323,147.542721 156.290023,147.513162 157.913287,147.209384 C158.63474,146.837726 166.199067,146.38955 166.199067,142.017107 C166.199067,137.644663 167.292178,132.354007 173.490117,131.632554 C179.688055,130.9111 178.409116,129.533781 178.409116,129.533781 L182.049175,126.527726 L179.04312,121.248 C179.04312,121.248 174.484848,112.590562 179.130569,109.945234 C180.117275,108.415518 181.385973,107.087466 182.869008,106.031897 C184.781952,104.938786 181.229342,99.1999537 181.229342,99.1999537 L181.120031,98.937607 L178.933809,93.8655725 L178.234218,92.6850128 L178.103045,90.8376554 L177.479971,89.4056801 L175.567027,88.9247114 L174.889299,91.0453465 L173.927361,90.9141732 L172.703077,91.1765198 L171.609966,92.0728707 L170.101473,93.2315682 L167.915251,93.2315682 L166.144412,92.4117351 L166.144412,94.5323702 L166.690967,97.0574563 L164.701505,97.330734 L163.138357,96.4453142 C163.138357,96.4453142 162.515283,96.3797276 161.422173,96.3032098 C160.329062,96.2266921 158.558222,92.8161861 158.558222,92.8161861 L155.694271,91.8651796 L154.732334,86.6729029 L153.278496,81.1198997 L152.731941,77.840567 L152.81939,75.0094098 L152.087006,72.5499103 L151.365552,74.7361321 L147.812942,73.0964658 L146.719831,71.008624 L146.534002,68.0900179 L148.589051,66.0349695 L150.775273,64.679512 L151.584175,63.0398457 L150.086613,59.0718532 L150.35989,55.2459651 L155.147716,52.3710834 L158.14284,49.3759596 L155.694271,46.905529 L155.825445,43.3638498 L156.098723,40.0845171 L154.185778,37.4829132 L151.999557,35.7120736 L151.726279,33.7881984 L150.633168,30.6509702 L149.682162,26.1364223 L149.26678,22.3105342 L151.453001,18.9000282 L150.491064,14.254307 L148.851397,11.5215298 L147.080558,9.88186343 L144.216607,8.93085696 L140.937275,6.41670193 L138.652673,6.32925306 L135.744998,7.06163735 L132.553114,9.33530799 L128.093222,10.8875254 L125.535342,11.7073586 L122.25601,13.7952004 L119.523232,13.6203026 L119.523232,9.69603458 L122.081112,9.24785911 L122.25601,6.51508191 L121.534556,3.410647 L117.162113,0.863698644 L113.511123,0.502972053 L110.33017,3.86975357 L107.77229,4.41630901 L104.952064,0.502972053 C104.952064,0.502972053 104.864615,4.96286445 102.853291,4.96286445 C100.841967,4.96286445 99.4865099,2.0442584 96.480455,2.96247154 C93.4744,3.88068468 92.7420158,4.96286445 93.1136735,6.96325737 C93.4853312,8.96365029 95.6606218,11.0624232 92.468738,11.8822563 C89.2768543,12.7020895 85.3635173,15.3474178 84.2704064,14.254307 C83.1772955,13.1611961 81.1769026,10.9749743 78.5315743,11.6089786 C75.8862459,12.2429829 70.4316226,13.7077515 70.5190715,17.8943662 C70.6065204,22.0809809 69.7866872,25.8194201 71.065627,27.7323641 C72.3445667,29.6453082 75.0773439,28.5521973 75.9846259,33.1979186 C76.891908,37.8436398 76.6186302,39.4833061 78.4441254,41.3088013 C80.2696206,43.1342965 84.1829575,51.1467993 84.3687864,54.6119607 C84.5546152,58.0771222 84.5436841,64.6248564 80.1712406,64.078301 C75.7987971,63.5317456 74.4324085,62.6244635 74.5307885,60.7989683 C74.6291684,58.9734732 73.5251264,58.0661911 73.1643998,55.7925205 C72.8036733,53.5188499 72.5194644,51.6059058 70.0599649,53.0597433 C67.6004655,54.5135808 62.9984686,56.743527 62.4081888,59.6184086 C61.8179089,62.4932902 60.4296581,63.4442967 61.5992867,65.1495497 C62.7689154,66.8548026 62.0693244,66.384765 63.1624353,67.8823269 C64.2555462,69.3798888 66.1029035,69.3143021 64.3320639,70.6916218 C62.5612243,72.0689415 55.2373814,78.6822624 53.7398195,78.8134357 C52.2422576,78.944609 52.1657398,77.5126337 50.5916601,76.6272139 C49.0175804,75.7417941 45.2026235,77.6547382 43.4208527,79.1523001 C41.639082,80.649862 40.8301799,78.747849 38.5018538,79.4365089 C36.1735276,80.1251688 40.4147978,81.0761752 35.6269721,82.8470149 C30.8391465,84.6178545 30.3035221,85.7109654 27.8440226,84.3555079 C25.3845232,83.0000504 27.4286405,84.2134035 24.2914123,84.3555079 C21.154184,84.4976123 20.1922465,82.3004594 19.3724133,83.8089524 C18.5525801,85.3174454 19.7768643,85.7109654 18.137198,88.0392915 C16.4975317,90.3676177 15.0655564,90.2911 15.7542163,91.3842108 C16.4428761,92.4773217 18.8258579,94.3902658 16.9129138,94.4558524 C14.9999698,94.5214391 13.5679945,90.1599267 11.7206371,91.3186242 C9.87327974,92.4773217 9.67651978,92.9582905 10.0809708,94.4558524 C10.4854218,95.9534143 10.0809708,97.123043 8.37571783,97.123043 C6.67046485,97.123043 5.43524955,97.3963207 5.91621834,97.8772895 C6.39718713,98.3582583 10.2230752,99.5169558 9.19555099,100.54448 C8.16802676,101.572004 5.22755848,103.408431 3.79558323,102.31532 C2.36360797,101.222209 1.27049709,101.637591 1.12839267,101.910869 L0.242972859,103.889399 Z" stroke="#000000" fill-opacity="0.4" fill="#0093FF"></path>
                            <text font-family="PingFangSC-Regular, PingFang SC" font-size="14" font-weight="normal" fill="#FFFFFF">
                                <tspan x="84" y="80">安塘镇</tspan>
                            </text>
                            <!--<ellipse  cx="8.1" cy="8" rx="4.1" ry="4" ></ellipse>-->
                            <g id="dian" class="dian cur" fill-opacity="0.3" transform="translate(103.000000, 87.000000)" fill="#FFFFFF" fill-rule="nonzero">
                                <!--<path d="M8.1,12 C10.3643675,12 12.2,10.209139 12.2,8 C12.2,5.790861 10.3643675,4 8.1,4 C5.83563253,4 4,5.790861 4,8 C4,10.209139 5.83563253,12 8.1,12 Z M8.1,16 C3.64829733,16 3.69482223e-13,12.4406855 3.69482223e-13,8 C3.69482223e-13,3.55931447 3.64829733,0 8.1,0 C12.5517027,0 16.2,3.55931447 16.2,8 C16.2,12.4406855 12.5517027,16 8.1,16 Z"
                                      id="quan-copy-8" fill-opacity="0.2"></path>-->
                                <ellipse id="quan-copy-8" cx="8.1" cy="8" rx="4.1" ry="4"></ellipse>
                            </g>
                        </g>
                        <!--<g id="安塘镇" transform="translate(256.000000, 112.000000)">
                            <path id="安塘镇" class="area"
                                  d="M0.242972859,103.889399 C4.15630982,103.616122 4.42958754,104.250126 6.93281146,105.889792 C9.43603538,107.529459 13.4040279,111.814453 11.8518104,113.137117 C10.299593,114.459782 9.98259082,114.54723 10.0809708,116.186897 C10.1793508,117.826563 10.397973,119.597403 11.9501904,118.87595 C13.5024079,118.154496 15.0874186,113.137117 17.0003627,113.956951 C18.0713723,114.262034 19.0437415,114.84244 19.8205888,115.640341 C20.7388019,116.503899 21.0995285,117.00673 22.3784682,116.733452 C23.657408,116.460174 25.2424187,115.367064 25.5156965,116.503899 C25.7889742,117.640734 26.6088074,118.690121 24.7395877,119.149227 C22.8703681,119.608334 21.1432529,119.783232 20.8699752,120.788894 C20.5966975,121.794556 20.8699752,122.472284 22.2363638,122.472284 C23.6027524,122.472284 23.6464769,123.335842 24.7833122,121.7399 C25.9201475,120.143958 27.6581938,118.87595 29.9100022,119.96906 C32.1618106,121.062171 36.8840496,123.521671 37.4961917,124.00264 C38.1083338,124.483608 40.9941466,123.150013 40.5131778,125.806273 L40.3710734,126.396552 L42.0763263,125.849997 L44.5358258,126.188861 L48.4273006,128.506256 L52.592053,125.707893 L48.1540228,122.220869 C47.9676907,121.138511 48.6132835,120.085914 49.6625159,119.761369 C51.5645288,118.87595 52.5264664,120.996585 53.4118862,121.54314 C54.332433,122.283204 55.5527229,122.535398 56.6912188,122.220869 C57.9264341,121.7399 57.9264341,119.837887 57.8608475,118.056116 C57.7952608,116.274346 58.6697495,113.475982 60.4515203,113.279222 C62.233291,113.082462 63.3264019,113.202704 63.2498841,111.770729 C63.1733664,110.338754 62.0256,108.764674 62.637742,108.556983 C63.2498841,108.349292 69.261994,108.556983 70.5627959,108.42581 C71.8635979,108.294636 74.2575107,106.85173 76.5749058,106.512865 C78.8923009,106.174001 78.4878498,108.764674 81.2206271,107.463872 C83.9534043,106.16307 83.4068488,107.463872 87.440428,108.076014 C91.4740071,108.688156 88.9161277,111.770729 90.555794,112.229835 C92.1954603,112.688942 90.2387918,115.509168 90.654174,116.777177 C91.0695561,118.045185 85.0902396,122.472284 85.5493461,123.434222 C86.0084527,124.39616 84.2922686,126.86659 84.2922686,126.86659 L85.1886196,128.298565 L88.8068166,126.593312 L88.5335389,129.599367 L89.6922364,132.200971 C89.6922364,132.200971 88.5991255,135.141439 87.6371879,137.590008 C86.6752504,140.038576 90.0311008,143.197667 92.1517359,143.536531 C94.272371,143.875395 92.6982913,148.663221 90.9165206,149.351881 C89.1347498,150.040541 92.2173225,154.063189 91.3974894,154.533227 C90.5776562,155.003264 91.965907,158.544943 91.965907,158.544943 C91.965907,158.544943 92.2829092,158.796359 90.7088295,159.036843 L90.9055895,159.146154 C92.665498,159.244534 93.0918112,159.867608 93.0918112,159.867608 L96.2399706,160.28299 C97.2025186,159.663456 98.2690091,159.222789 99.3881299,158.982188 C100.404723,158.982188 100.612414,157.342522 100.612414,157.342522 C100.612414,157.342522 102.984465,155.495164 104.350853,155.626337 C105.717242,155.757511 108.996575,154.314604 110.72369,153.942947 C112.450805,153.571289 110.811139,151.581827 112.363356,151.210169 C113.841276,150.693369 115.247959,149.991864 116.549971,149.122328 C116.549971,149.122328 115.096133,146.29117 116.921628,146.29117 C118.747124,146.29117 120.834965,147.023555 122.387183,147.111004 C124.750902,147.529605 127.089998,148.076976 129.394024,148.75067 C129.394024,148.75067 133.405741,150.215439 133.864847,150.849443 C134.323954,151.483447 137.14418,152.30328 137.14418,152.30328 L139.505299,152.30328 L138.685466,150.663614 L138.958744,148.389943 L140.784239,147.755939 L142.238077,146.476999 L142.609734,148.389943 L143.702845,147.482661 L146.162345,146.203722 L147.430353,145.657166 L148.436015,146.116273 C148.436015,146.116273 149.889853,144.651504 150.982964,145.19806 C152.076074,145.744615 152.076074,147.111004 152.994288,147.296832 C154.627323,147.542721 156.290023,147.513162 157.913287,147.209384 C158.63474,146.837726 166.199067,146.38955 166.199067,142.017107 C166.199067,137.644663 167.292178,132.354007 173.490117,131.632554 C179.688055,130.9111 178.409116,129.533781 178.409116,129.533781 L182.049175,126.527726 L179.04312,121.248 C179.04312,121.248 174.484848,112.590562 179.130569,109.945234 C180.117275,108.415518 181.385973,107.087466 182.869008,106.031897 C184.781952,104.938786 181.229342,99.1999537 181.229342,99.1999537 L181.120031,98.937607 L178.933809,93.8655725 L178.234218,92.6850128 L178.103045,90.8376554 L177.479971,89.4056801 L175.567027,88.9247114 L174.889299,91.0453465 L173.927361,90.9141732 L172.703077,91.1765198 L171.609966,92.0728707 L170.101473,93.2315682 L167.915251,93.2315682 L166.144412,92.4117351 L166.144412,94.5323702 L166.690967,97.0574563 L164.701505,97.330734 L163.138357,96.4453142 C163.138357,96.4453142 162.515283,96.3797276 161.422173,96.3032098 C160.329062,96.2266921 158.558222,92.8161861 158.558222,92.8161861 L155.694271,91.8651796 L154.732334,86.6729029 L153.278496,81.1198997 L152.731941,77.840567 L152.81939,75.0094098 L152.087006,72.5499103 L151.365552,74.7361321 L147.812942,73.0964658 L146.719831,71.008624 L146.534002,68.0900179 L148.589051,66.0349695 L150.775273,64.679512 L151.584175,63.0398457 L150.086613,59.0718532 L150.35989,55.2459651 L155.147716,52.3710834 L158.14284,49.3759596 L155.694271,46.905529 L155.825445,43.3638498 L156.098723,40.0845171 L154.185778,37.4829132 L151.999557,35.7120736 L151.726279,33.7881984 L150.633168,30.6509702 L149.682162,26.1364223 L149.26678,22.3105342 L151.453001,18.9000282 L150.491064,14.254307 L148.851397,11.5215298 L147.080558,9.88186343 L144.216607,8.93085696 L140.937275,6.41670193 L138.652673,6.32925306 L135.744998,7.06163735 L132.553114,9.33530799 L128.093222,10.8875254 L125.535342,11.7073586 L122.25601,13.7952004 L119.523232,13.6203026 L119.523232,9.69603458 L122.081112,9.24785911 L122.25601,6.51508191 L121.534556,3.410647 L117.162113,0.863698644 L113.511123,0.502972053 L110.33017,3.86975357 L107.77229,4.41630901 L104.952064,0.502972053 C104.952064,0.502972053 104.864615,4.96286445 102.853291,4.96286445 C100.841967,4.96286445 99.4865099,2.0442584 96.480455,2.96247154 C93.4744,3.88068468 92.7420158,4.96286445 93.1136735,6.96325737 C93.4853312,8.96365029 95.6606218,11.0624232 92.468738,11.8822563 C89.2768543,12.7020895 85.3635173,15.3474178 84.2704064,14.254307 C83.1772955,13.1611961 81.1769026,10.9749743 78.5315743,11.6089786 C75.8862459,12.2429829 70.4316226,13.7077515 70.5190715,17.8943662 C70.6065204,22.0809809 69.7866872,25.8194201 71.065627,27.7323641 C72.3445667,29.6453082 75.0773439,28.5521973 75.9846259,33.1979186 C76.891908,37.8436398 76.6186302,39.4833061 78.4441254,41.3088013 C80.2696206,43.1342965 84.1829575,51.1467993 84.3687864,54.6119607 C84.5546152,58.0771222 84.5436841,64.6248564 80.1712406,64.078301 C75.7987971,63.5317456 74.4324085,62.6244635 74.5307885,60.7989683 C74.6291684,58.9734732 73.5251264,58.0661911 73.1643998,55.7925205 C72.8036733,53.5188499 72.5194644,51.6059058 70.0599649,53.0597433 C67.6004655,54.5135808 62.9984686,56.743527 62.4081888,59.6184086 C61.8179089,62.4932902 60.4296581,63.4442967 61.5992867,65.1495497 C62.7689154,66.8548026 62.0693244,66.384765 63.1624353,67.8823269 C64.2555462,69.3798888 66.1029035,69.3143021 64.3320639,70.6916218 C62.5612243,72.0689415 55.2373814,78.6822624 53.7398195,78.8134357 C52.2422576,78.944609 52.1657398,77.5126337 50.5916601,76.6272139 C49.0175804,75.7417941 45.2026235,77.6547382 43.4208527,79.1523001 C41.639082,80.649862 40.8301799,78.747849 38.5018538,79.4365089 C36.1735276,80.1251688 40.4147978,81.0761752 35.6269721,82.8470149 C30.8391465,84.6178545 30.3035221,85.7109654 27.8440226,84.3555079 C25.3845232,83.0000504 27.4286405,84.2134035 24.2914123,84.3555079 C21.154184,84.4976123 20.1922465,82.3004594 19.3724133,83.8089524 C18.5525801,85.3174454 19.7768643,85.7109654 18.137198,88.0392915 C16.4975317,90.3676177 15.0655564,90.2911 15.7542163,91.3842108 C16.4428761,92.4773217 18.8258579,94.3902658 16.9129138,94.4558524 C14.9999698,94.5214391 13.5679945,90.1599267 11.7206371,91.3186242 C9.87327974,92.4773217 9.67651978,92.9582905 10.0809708,94.4558524 C10.4854218,95.9534143 10.0809708,97.123043 8.37571783,97.123043 C6.67046485,97.123043 5.43524955,97.3963207 5.91621834,97.8772895 C6.39718713,98.3582583 10.2230752,99.5169558 9.19555099,100.54448 C8.16802676,101.572004 5.22755848,103.408431 3.79558323,102.31532 C2.36360797,101.222209 1.27049709,101.637591 1.12839267,101.910869 L0.242972859,103.889399 Z"
                                  stroke="#000000" fill="#0093FF"></path>
                            <text font-family="PingFangSC-Regular, PingFang SC" font-size="14"
                                  font-weight="normal"
                                  fill="#FFFFFF">
                                <tspan x="84" y="80">安塘镇</tspan>
                            </text>
                            <ellipse id="dian" cx="8.1" cy="8" rx="4.1" ry="4" ></ellipse>
                            &lt;!&ndash;<g id="dian" transform="translate(103.000000, 87.000000)" fill="#FFFFFF" fill-rule="nonzero">
                                <path d="M8.1,12 C10.3643675,12 12.2,10.209139 12.2,8 C12.2,5.790861 10.3643675,4 8.1,4 C5.83563253,4 4,5.790861 4,8 C4,10.209139 5.83563253,12 8.1,12 Z M8.1,16 C3.64829733,16 3.69482223e-13,12.4406855 3.69482223e-13,8 C3.69482223e-13,3.55931447 3.64829733,0 8.1,0 C12.5517027,0 16.2,3.55931447 16.2,8 C16.2,12.4406855 12.5517027,16 8.1,16 Z"
                                      id="quan-copy-8" fill-opacity="0.2"></path>
                                <ellipse id="quan-copy-8" cx="8.1" cy="8" rx="4.1" ry="4"></ellipse>
                            </g>&ndash;&gt;
                        </g>-->
                        <g id="核心区" transform="translate(223.000000, 121.000000)">
                            <path id="核心区" class="area" d="M101.376574,7.84497975 C97.140597,7.70409043 92.9000618,7.79897332 88.6746257,8.12918858 C81.1540228,8.67574402 72.4091358,1.70169659 69.5451853,0.4774124 C66.6812348,-0.746871789 61.6092003,3.34136291 59.073183,4.84985593 C56.5371658,6.35834895 52.7331399,6.20531343 48.7760785,5.11220254 C44.8190171,4.01909166 8.04676701,5.94296681 7.64231598,5.94296681 C7.23786496,5.94296681 1.90348385,6.75186887 0.941546273,7.0360777 C-0.0203913035,7.32028653 1.77231054,8.67574402 2.72331701,9.22229946 C4.10796222,10.142894 5.63254253,10.8332003 7.23786496,11.2664168 C10.2329888,12.2174233 8.33097584,13.3105342 8.87753128,15.6388603 C9.42408672,17.9671865 15.0208144,17.9671865 15.0208144,17.9671865 C15.0208144,17.9671865 13.7965303,22.0554212 19.393258,23.9792964 C24.9899857,25.9031715 24.3013258,34.2217454 23.0770416,35.4569606 C21.8527575,36.6921759 19.4697757,39.8294042 22.5742106,43.6006367 C25.6786455,47.3718693 23.3940438,47.4265248 23.4814927,49.0661911 C23.5689415,50.7058575 19.8414334,56.2697919 19.7430535,57.9531826 C19.6446735,59.6365734 22.4758307,59.3195712 24.115497,59.3632957 C25.7551633,59.4070201 28.6191138,61.002962 27.9413851,61.4620685 C27.2636563,61.9211751 22.1916218,62.7300772 22.1478974,63.5936348 C22.104173,64.4571924 21.0547865,65.0146789 19.6446735,65.7798565 C18.2345604,66.5450342 22.3993129,69.7259868 23.1535594,69.6494691 C23.9078059,69.5729513 31.0786133,78.3943561 33.4069395,79.9684358 C35.7352657,81.5425155 34.9700881,79.1486026 36.27089,77.9243184 C37.571692,76.7000343 39.2113583,79.2251204 40.3044692,80.1761269 C41.39758,81.1271333 40.5777469,81.4769288 40.8510246,82.2202442 C41.1243023,82.9635596 43.3433174,83.4226662 43.3433174,83.4226662 C43.7630718,83.0022421 44.2330023,82.6351089 44.7424993,82.3295553 C46.5898567,81.1708578 48.021832,85.5433013 49.934776,85.4667835 C51.8477201,85.3902658 49.4538072,83.4882528 48.7760785,82.395142 C48.0983498,81.3020311 49.5193939,81.3785488 51.1590602,79.0502227 C52.7987266,76.7218965 51.5744424,76.3174454 52.3942755,74.8198835 C53.2141087,73.3223216 54.1760463,75.4976123 57.3132745,75.366439 C60.4505027,75.2352657 58.4063854,73.9891193 60.8658849,75.366439 C63.3253844,76.7437587 63.8719398,75.6287856 68.6488344,73.857946 C73.4257289,72.0871063 69.1953898,71.1251688 71.523716,70.44744 C73.8520422,69.7697113 74.6609442,71.6717242 76.4427149,70.1632312 C78.2244857,68.6547382 82.0503738,66.7527252 83.6135223,67.638145 C85.1766709,68.5235649 85.2531887,69.9664712 86.7616817,69.8243668 C88.2701747,69.6822624 95.5721554,63.0580104 97.3539261,61.7025529 C99.1356969,60.3470954 97.2774084,60.401751 96.1842975,58.893258 C95.0911866,57.384765 95.7798465,57.8766649 94.6211489,56.1604808 C93.4624514,54.4442967 94.8834955,53.5042213 95.430051,50.6293397 C95.9766064,47.7544581 100.578603,45.5245119 103.081827,44.0706744 C105.585051,42.6168369 105.814604,44.529781 106.186262,46.8034516 C106.55792,49.0771222 107.6401,49.9953354 107.552651,51.8098995 C107.465202,53.6244635 108.820659,54.5426767 113.193103,55.0892321 C117.565546,55.6357875 117.565546,49.0771222 117.390649,45.6228919 C117.215751,42.1686615 113.291483,34.1452276 111.465988,32.3197324 C109.640492,30.4942372 109.91377,28.8545709 109.006488,24.2088497 C108.099206,19.5631284 105.366429,20.6562393 104.087489,18.7432953 C102.808549,16.8303512 103.628383,13.1028431 103.540934,8.90529731 C103.528934,8.41609514 103.59914,7.92834901 103.748625,7.46239094 L101.376574,7.84497975 Z" stroke="#000000" fill-opacity="0.4" fill="#0093FF"></path>
                            <text font-family="PingFangSC-Regular, PingFang SC" font-size="14" font-weight="normal" fill="#FFFFFF">
                                <tspan x="41" y="35">核心区</tspan>
                            </text>
                            <ellipse id="dian" class="dian" fill-opacity="0.3" fill="#FFFFFF" fill-rule="nonzero" cx="61.7332286" cy="46.7357724" rx="4.73322857" ry="4.73577236"></ellipse>
                        </g>
                        <g id="云城街" transform="translate(55.000000, 93.000000)">
                            <path id="云城街" class="area" d="M114.832558,158.011052 L120.166939,158.011052 C120.166939,158.011052 121.052359,156.294868 124.124,156.087177 C127.195642,155.879486 125.763666,152.337807 128.026406,151.998942 C130.289145,151.660078 131.775776,151.452387 131.775776,151.452387 C131.775776,151.452387 130.420319,148.238641 132.945405,147.079943 C135.470491,145.921246 134.104102,142.423291 135.95146,141.953253 C137.798817,141.483215 140.181799,141.745562 141.067219,143.177537 C141.952639,144.609513 143.122267,141.734631 143.122267,141.734631 C143.122267,141.734631 146.4016,135.001068 145.035211,133.273953 C143.668823,131.546838 141.755879,130.355347 142.116605,129.907171 C142.477332,129.458996 142.302434,124.441617 142.302434,124.441617 L147.133984,123.895061 C147.133984,123.895061 144.401207,127.349292 147.494711,129.360616 C150.588215,131.37194 151.867154,127.994227 151.867154,127.994227 L151.867154,123.621784 L158.338371,131.27356 L164.164652,132.45412 L164.897036,128.901509 L170.36259,129.535514 L169.26948,132.366671 L170.36259,138.466229 L172.82209,142.379566 C172.82209,142.379566 178.287644,142.477946 179.380755,141.472284 C180.473866,140.466622 182.561708,134.640341 184.201374,134.640341 C185.841041,134.640341 186.846703,138.652058 188.945475,138.739507 C191.044248,138.826956 197.045427,135.274346 197.045427,134.181235 C197.045427,133.088124 197.296843,124.102752 200.696417,122.99871 L201.242973,122.889399 L202.215842,120.910869 C202.357946,120.637591 203.451057,120.222209 204.883032,121.31532 C206.315007,122.408431 209.255476,120.561073 210.283,119.54448 C211.310524,118.527887 207.484636,117.358258 207.003667,116.877289 C206.522698,116.396321 207.746983,116.123043 209.463167,116.123043 C211.179351,116.123043 211.572871,114.964345 211.16842,113.455852 C210.893816,112.851482 210.926352,112.151973 211.255869,111.575702 L211.408904,111.378942 C211.408904,111.378942 209.222682,110.930766 208.916611,110.17652 C208.61054,109.422273 209.463167,109.083409 208.370056,108.132402 C207.276945,107.181396 205.637279,104.645379 204.336477,105.880594 C203.035675,107.115809 203.789921,109.498791 201.472526,107.924711 C199.155131,106.350632 191.973393,97.540158 191.219146,97.6057446 C190.4649,97.6713313 186.256423,94.4685164 187.71026,93.7361321 C189.164098,93.0037478 190.16976,92.4681235 190.213484,91.5499103 C190.257208,90.6316972 195.318312,89.8665196 196.006972,89.4183441 C196.695632,88.9701687 193.82075,87.3632957 192.181084,87.3195712 C190.541417,87.2758468 187.666536,87.5928489 187.80864,85.9094582 C187.950745,84.2260674 191.634528,78.662133 191.547079,77.0224667 C191.45963,75.3828004 193.733301,75.2953515 190.639797,71.5569123 C187.546293,67.8184731 189.907413,64.6375204 191.142628,63.4132362 C192.377844,62.188952 193.077435,53.8375849 187.458845,51.9355719 C181.840255,50.033559 183.086401,45.9234621 183.086401,45.9234621 C183.086401,45.9234621 177.489673,45.9234621 176.943118,43.5951359 C176.396562,41.2668097 178.298575,40.1736988 175.303452,39.2226924 C173.698129,38.7894759 172.173549,38.0991695 170.788904,37.178575 C169.837897,36.6320196 168.056126,35.2546999 169.007133,34.9923533 C169.007133,34.9923533 172.286466,32.6640271 172.155292,31.8441939 C172.024119,31.0243608 172.024119,28.5648613 172.024119,28.5648613 C172.024119,28.5648613 170.931008,25.4167019 169.695793,24.4656955 C168.021981,22.7541162 166.469637,20.9278296 165.050072,19.000141 C165.050072,19.000141 164.634689,17.5681658 165.902698,17.8414435 C167.170707,18.1147212 170.690524,19.3717987 171.510357,17.8414435 C171.946589,17.0879667 172.256748,16.2682611 172.42857,15.4147374 C172.42857,15.4147374 169.422515,13.7094844 169.794173,13.2285156 C170.16583,12.7475468 174.275927,10.7690161 174.068236,10.2880473 C173.860545,9.80707852 172.975125,6.83381692 171.335459,7.11802575 C170.412807,7.33897957 169.509795,7.63510886 168.635475,8.00344557 C168.056126,8.06903222 167.717262,4.99739064 165.181245,4.51642185 C162.645228,4.03545306 162.109603,4.51642185 162.109603,4.51642185 C162.109603,4.51642185 161.431875,1.30267585 160.131073,1.78364464 C159.511933,1.9686771 158.933356,2.26909221 158.42582,2.66906446 C157.828789,2.23395139 157.153225,1.91844059 156.436358,1.73992021 C154.671752,1.32486243 152.858253,1.15565158 151.047321,1.2370892 C149.134377,1.36826251 147.899162,0.0128050132 147.221433,1.2370892 C146.543704,2.46137339 146.193909,4.09010861 145.035211,4.51642185 C143.810224,5.19751594 143.043029,6.48173362 143.023887,7.88320337 C142.936438,9.24959197 143.482994,9.79614741 142.204054,10.6159806 C140.925114,11.4358137 138.290717,12.0807492 138.290717,13.2613089 C138.290717,14.4418687 139.296379,16.5406416 139.11055,17.7212013 C138.924721,18.9017611 135.55794,19.7325253 134.738107,20.2790808 C133.616197,21.1775767 132.686784,22.292872 132.00533,23.5584134 C130.999668,25.1980798 129.633279,28.0183058 130.179834,29.6579722 C130.72639,31.2976385 132.551885,35.0360777 132.737714,35.7575309 C132.923543,36.4789841 135.645389,40.1299744 136.563602,40.0425255 C137.481815,39.9550767 136.563602,43.0485805 136.377773,43.8684136 C136.191944,44.6882468 134.825556,45.5955288 134.825556,46.3279131 C134.825556,47.0602974 135.55794,48.1534083 135.197213,48.8748615 C134.836487,49.5963147 132.092778,50.7878055 131.917881,52.7991295 C131.742983,54.8104536 131.098048,58.5379617 130.551492,58.166304 C130.004937,57.7946463 130.092386,52.7007496 130.092386,52.0667452 C130.092386,51.4327409 130.179834,50.2412501 129.819108,49.8805235 C129.458381,49.5197969 128.36527,48.6999637 127.906164,48.2408572 C127.254082,47.4239749 126.644767,46.5738523 126.080669,45.6939088 C126.080669,45.6939088 124.626831,48.6015838 124.353553,49.2465192 C124.080276,49.8914546 123.992827,50.3396301 121.981503,50.7003566 C119.970179,51.0610832 119.522003,51.6076387 119.248726,52.4274718 C119.081868,53.5741511 119.240963,54.7446428 119.707832,55.8051845 C120.068559,56.5266377 118.80055,57.5322997 117.335781,58.0788551 C115.871013,58.6254105 115.24794,60.6258035 114.920006,61.9047432 C114.592073,63.1836829 114.242278,64.4516916 112.602611,64.6375204 C110.962945,64.8233493 111.148774,64.6375204 109.13745,64.8233493 C107.126126,65.0091781 107.683612,65.5448024 105.497391,63.7302384 C103.311169,61.9156743 103.12534,61.5440166 101.310776,61.5440166 C99.4962119,61.5440166 101.485674,59.7185214 99.4852808,57.5322997 C98.2322207,56.1715557 96.8921652,54.8935736 95.4735638,53.7064116 C95.4735638,53.7064116 87.1003345,49.333968 86.0072236,48.0550283 C84.9141127,46.7760886 85.8213947,43.1360293 83.635173,44.4149691 C82.2040874,45.2242951 80.6710279,45.8382542 79.0769006,46.2404642 C79.0769006,46.2404642 79.3829716,43.9121381 75.3493925,43.9121381 C71.3158133,43.9121381 73.1631707,42.3380584 73.1631707,42.3380584 C73.1631707,42.3380584 70.3648069,44.1854158 69.7526648,44.5242802 C69.1405227,44.8631445 66.3968144,48.1534083 64.757148,47.3991618 C61.9396713,45.9940397 60.7600759,42.5960282 62.1008886,39.7473856 C62.1008886,39.7473856 61.0077777,42.0647807 56.9741986,43.4311693 C52.9406194,44.7975579 49.2459046,41.4526386 48.6993492,41.1793609 C48.1527937,40.9060831 43.9224546,37.2222995 42.6872393,37.6267505 C40.9305679,38.0364348 39.1536527,38.3538714 37.3637893,38.577757 L35.319672,35.5826331 C35.319672,35.5826331 34.2265611,41.1793609 33.9423523,41.999194 C33.6581434,42.8190272 30.805124,48.6999637 28.0723468,50.4708034 C25.3395696,52.241643 23.973181,57.8493018 23.973181,57.8493018 C25.1943079,60.0486169 26.7094537,62.071263 28.4767978,63.8614117 C31.6249572,67.1407443 35.1775676,69.7314171 38.3147958,69.6002438 C41.452024,69.4690705 42.8293437,74.5192428 42.1406839,76.7054645 C41.452024,78.8916863 38.7301779,83.8106853 40.643122,85.9969071 C42.556066,88.1831288 42.9714481,89.5495174 40.9163997,89.6916218 C38.8613512,89.8337262 33.5379012,87.9098511 32.1715126,92.6867457 C31.1605376,95.5833714 30.8789584,98.6844976 31.3516795,101.715842 C31.6249572,104.306514 32.1715126,106.350632 30.9472284,108.536853 C29.7229442,110.723075 32.8492414,112.362742 31.7561305,115.926283 C30.6630196,119.489824 31.209575,120.298727 26.2905761,121.654184 C21.3715771,123.009642 22.3335147,124.124615 20.1472929,127.119738 C17.9610711,130.114862 13.8619053,137.646396 10.4404683,137.504292 C7.01903121,137.362187 6.06802474,138.335056 5.5214693,140.237069 C4.97491386,142.139082 -0.89509158,144.347166 1.29113019,146.664561 C3.47735195,148.981956 4.57046283,150.490449 4.42835842,151.58356 C4.286254,152.676671 6.35223357,155.682726 9.21618409,154.589615 C12.0801346,153.496504 12.62669,149.81272 14.8129118,150.621622 C16.9991336,151.430524 21.7869592,155.595277 20.2784662,157.049114 C18.7699732,158.502952 18.452971,161.607387 24.4650809,161.607387 C30.4771908,161.607387 31.209575,159.235336 33.3957968,161.607387 C35.5820186,163.979437 36.4893006,162.153942 40.5010176,161.607387 C44.5127345,161.060831 46.6880251,161.060831 47.6062383,162.787947 C48.5244514,164.515062 53.2466904,161.607387 55.6187411,161.235729 C57.9907917,160.864071 61.2701243,155.770175 66.0032944,154.316337 C70.7364646,152.8625 70.0150114,148.850783 76.202019,147.757672 C82.3890266,146.664561 81.8534022,147.211116 85.4934615,145.932177 C89.1335207,144.653237 87.5047855,139.198614 91.1448447,140.105896 C94.784904,141.013178 96.2496726,139.55934 100.250458,137.373119 C104.251244,135.186897 102.808338,132.268291 104.262175,135.186897 C105.716013,138.105503 106.994953,135.372726 108.634619,137.733845 C110.274285,140.094965 111.913952,143.385228 111.181567,147.025288 C110.449183,150.665347 109.181174,150.490449 109.541901,151.58356 C109.902627,152.676671 114.832558,158.011052 114.832558,158.011052 Z" stroke="#000000" fill-opacity="0.4" fill="#0093FF"></path>
                            <text font-family="PingFangSC-Regular, PingFang SC" font-size="14" font-weight="normal" fill="#FFFFFF">
                                <tspan x="96" y="95">云城街</tspan>
                            </text>
                            <ellipse id="dian" class="dian" fill-opacity="0.3" fill="#FFFFFF" fill-rule="nonzero" cx="116.733229" cy="106.735772" rx="4.73322857" ry="4.73577236"></ellipse>
                        </g>
                        <g id="高峰街" transform="translate(83.000000, 33.000000)">
                            <path id="高峰街" class="area" d="M7.31967197,95.5826331 L9.36378932,98.577757 C11.1536527,98.3538714 12.9305679,98.0364348 14.6872393,97.6267505 C15.9224546,97.2222995 20.1527937,100.906083 20.6993492,101.179361 C21.2459046,101.452639 24.9406194,104.797558 28.9741986,103.431169 C33.0077777,102.064781 34.1008886,99.7473856 34.1008886,99.7473856 C32.7600759,102.596028 33.9396713,105.99404 36.757148,107.399162 C38.3968144,108.153408 41.1295916,104.874076 41.7526648,104.52428 C42.375738,104.174485 45.1631707,102.338058 45.1631707,102.338058 C45.1631707,102.338058 43.3158133,103.912138 47.3493925,103.912138 C51.3829716,103.912138 50.9894517,106.284189 50.9894517,106.284189 C52.583579,105.881979 54.1166385,105.26802 55.5477241,104.458694 C57.7339459,103.179754 56.8266638,106.830744 57.9197747,108.098753 C59.0128856,109.366761 67.386115,113.750136 67.386115,113.750136 C68.8047164,114.937298 70.1447719,116.21528 71.3978319,117.576024 C73.3982248,119.762246 71.3978319,121.587741 73.2233271,121.587741 C75.0488223,121.587741 75.22372,121.948468 77.4099418,123.773963 C79.5961635,125.599458 79.0496081,125.041971 81.050001,124.867074 C83.0503939,124.692176 82.8754962,124.867074 84.5151625,124.681245 C86.1548288,124.495416 86.5155554,123.227407 86.8325576,121.948468 C87.1495597,120.669528 87.7944952,118.669135 89.2483326,118.12258 C90.7021701,117.576024 91.9811098,116.570362 91.6203832,115.848909 C91.1535146,114.788367 90.9944187,113.617876 91.1612767,112.471196 C91.4345544,111.651363 91.893661,111.104808 93.8940539,110.744081 C95.8944468,110.383354 95.9928268,109.924248 96.2661045,109.290244 C96.5393822,108.656239 97.9932197,105.737633 97.9932197,105.737633 C98.5573178,106.617577 99.1666331,107.467699 99.8187149,108.284582 C100.277821,108.743688 101.370932,109.563521 101.731659,109.924248 C102.092386,110.284975 102.004937,111.476465 102.004937,112.11047 C102.004937,112.744474 101.917488,117.849302 102.464043,118.210028 C103.010599,118.570755 103.644603,114.843247 103.830432,112.842854 C104.016261,110.842461 106.738107,109.65097 107.109764,108.918586 C107.481422,108.186202 106.738107,107.104022 106.738107,106.371638 C106.738107,105.639253 108.104495,104.731971 108.290324,103.912138 C108.476153,103.092305 109.383435,99.9988011 108.476153,100.08625 C107.568871,100.173699 104.825163,96.5336396 104.650265,95.8012553 C104.475367,95.068871 102.638941,91.3413629 102.092386,89.7016966 C101.54583,88.0620303 102.912219,85.2418042 103.917881,83.6021379 C104.599336,82.3365964 105.528748,81.2213011 106.650658,80.3228052 C107.470491,79.7762498 110.837273,78.9564166 111.023101,77.7649257 C111.20893,76.5734349 110.203268,74.4855931 110.203268,73.3050333 C110.203268,72.1244736 112.848597,71.4795382 114.116605,70.659705 C115.384614,69.8398718 114.84899,69.2933164 114.936438,67.9269278 C114.95558,66.5254581 115.722775,65.2412404 116.947762,64.5601463 C118.128322,64.1010397 118.467187,62.4395112 119.133984,61.2808136 L116.466794,57.903101 L113.329565,55.7168792 L114.007294,52.0221645 L121.790244,52.0221645 C122.5949,51.9781251 123.401362,51.9781251 124.206019,52.0221645 C125.308224,51.6263349 126.375821,51.1400665 127.397902,50.568327 L123.484565,48.0104475 C123.484565,48.0104475 124.938403,49.4752161 119.28702,45.9226057 C113.635636,42.3699954 116.82752,42.0967176 113.821465,40.730329 C110.81541,39.3639404 108.268462,40.8177779 109.722299,37.6258941 C111.176137,34.4340104 109.908128,25.2409478 106.08224,24.9676701 C102.256352,24.6943924 99.5235749,25.2409478 98.7037418,24.9676701 C97.8839086,24.6943924 93.2381874,22.7814483 93.2381874,22.7814483 L91.893661,16.4632674 C91.893661,16.4632674 94.6264382,10.4511576 93.2600496,9.90460215 C91.893661,9.35804671 86.7013843,4.71232545 85.8815511,2.52610369 C85.3138503,1.21557479 84.0302839,0.359863905 82.6022185,0.339881924 C82.6022185,0.339881924 77.6832195,4.71232545 77.4099418,6.35199178 C77.136664,7.9916581 76.8633863,13.7304902 76.0435532,15.6434343 C75.22372,17.5563783 72.2176651,22.748655 71.3978319,25.4814322 C70.5779988,28.2142094 67.5719438,27.667654 64.5658889,28.4874872 C61.559834,29.3073203 54.4546132,35.8659856 54.4546132,36.6858188 C54.4546132,37.5056519 53.6347801,45.9772613 51.721836,46.5238167 C49.808892,47.0703722 45.4364484,45.7039836 43.2502267,47.0703722 C41.0640049,48.4367608 40.2441718,49.5298716 36.6915614,49.8031494 C33.138951,50.0764271 24.1207862,51.169538 19.2017873,47.3436499 C19.2017873,47.3436499 17.5621209,52.4047533 14.9714481,52.5359266 C12.3807754,52.6670999 10.5990046,53.9023152 10.0524492,55.1375305 C9.50589373,56.3727458 9.63706704,58.4168631 6.22656108,59.0945919 C4.21897259,59.4769177 2.3107051,60.2655194 0.618902255,61.4119869 C0.618902255,61.4119869 1.56990872,66.6151947 3.75613049,69.347972 C5.94235225,72.0807492 10.7301779,74.8135264 10.4569002,78.49731 C10.1836225,82.1810937 7.31967197,95.5826331 7.31967197,95.5826331 Z" stroke="#000000" fill-opacity="0.4" fill="#0093FF"></path>
                            <text font-family="PingFangSC-Regular, PingFang SC" font-size="14" font-weight="normal" fill="#FFFFFF">
                                <tspan x="26" y="71">高峰街</tspan>
                            </text>
                            <ellipse id="dian" class="dian" fill-opacity="0.3" fill="#FFFFFF" fill-rule="nonzero" cx="46.7332286" cy="82.7357724" rx="4.73322857" ry="4.73577236"></ellipse>
                        </g>
                        <g id="河口街" transform="translate(198.000000, 45.000000)">
                            <path id="河口街" class="area" d="M4.15584638,49.2808136 C4.83357513,48.0893228 6.06879042,49.4447803 7.98173447,49.2808136 C9.79266638,49.199376 11.6061653,49.3685869 13.3707711,49.7836446 C14.0876385,49.962165 14.7632028,50.2776758 15.3602329,50.7127889 C15.8677691,50.3128166 16.4463464,50.0124015 17.0654859,49.8273691 C18.3662879,49.3464003 19.0440166,52.5601463 19.0440166,52.5601463 C19.0440166,52.5601463 19.590572,52.0791775 22.1156582,52.5601463 C24.6407443,53.0411151 24.9905398,56.1127567 25.5698886,56.04717 C26.4442087,55.6788333 27.3472203,55.382704 28.2698725,55.1617502 C29.8767455,54.8775414 30.7949586,57.850803 31.0026497,58.3317717 C31.2103407,58.8127405 27.1111749,60.8240646 26.7285861,61.27224 C26.3459973,61.7204155 29.3629833,63.4584618 29.3629833,63.4584618 C29.1911611,64.3119855 28.8810022,65.1316912 28.4447702,65.8851679 C27.624937,67.4483165 24.0723267,66.191239 22.8371114,65.8851679 C21.6018961,65.5790969 21.9844849,67.0438655 21.9844849,67.0438655 C23.4040506,68.971554 24.9563942,70.7978406 26.6302061,72.5094199 C27.8654214,73.4604264 28.9585323,76.6085857 28.9585323,76.6085857 C28.9585323,76.6085857 28.9585323,79.0680852 29.0897056,79.8879184 C29.1771545,80.4344738 27.7451792,81.658758 26.7832417,82.4130045 L25.9415463,83.0360777 C26.9034839,82.7518689 32.237865,81.9429668 32.642316,81.9429668 C33.046767,81.9429668 69.808086,80.0190917 73.7760785,81.1122025 C77.744071,82.2053134 81.5262347,82.3474178 84.073183,80.8498559 C86.6201314,79.352294 91.7249592,75.2421971 94.5451853,76.4774124 C97.3654114,77.7126277 106.154023,84.675744 113.674626,84.1291886 C117.900062,83.7989733 122.140597,83.7040904 126.376574,83.8449797 L128.770487,83.4514598 C128.770487,83.4514598 133.755073,78.9259808 136.345745,79.3413629 L135.252635,75.7887525 C135.252635,75.7887525 137.985412,63.075873 139.362731,62.671422 C140.740051,62.2669709 141.133571,55.2929235 141.133571,55.2929235 L145.779292,51.7403131 L143.866348,44.0885369 C143.866348,44.0885369 140.313738,41.082482 138.674072,41.3557597 C137.034405,41.6290375 135.394739,44.9083701 132.935239,44.3618147 C130.47574,43.8152592 129.109351,36.9833162 126.376574,36.7100385 C123.643797,36.4367608 125.010186,35.6169276 122.004131,36.7100385 C118.998076,37.8031494 115.718743,34.5238167 113.805799,34.5238167 C111.892855,34.5238167 114.352354,35.0703722 108.066967,33.1574281 C101.781579,31.2444841 100.961746,27.418596 98.5022467,29.6048177 C96.0427472,31.7910395 93.5832477,33.7039836 91.3970259,31.2444841 C89.2108042,28.7849846 88.390971,29.0582623 87.8444156,30.4246509 C87.2978601,31.7910395 79.3728062,23.3194302 78.5529731,20.0400975 C77.7331399,16.7607649 82.3788611,17.0340426 75.4157448,14.4324387 C68.4526285,11.8308348 68.3105241,7.32721796 66.1243023,6.37621149 C63.9380806,5.42520502 63.6538717,7.19604465 62.2984142,8.01587781 C60.9429567,8.83571098 61.3364767,6.64948921 58.7348728,7.8737734 C56.1332689,9.09805759 55.7397489,10.6065506 53.9579782,12.9348768 C52.1762075,15.263203 51.3673054,15.5255496 49.3122569,14.4324387 C47.2572085,13.3393278 47.1260352,12.3883213 45.3551956,12.7927724 C43.5843559,13.1972234 41.7916541,14.0279877 42.0758629,12.5304258 C42.3600717,11.0328638 40.8406476,5.00982289 38.7965303,3.916712 C36.7524129,2.82360112 34.4240867,-0.324558222 32.7844204,1.05276149 C30.8376111,2.79172579 28.332769,3.77660179 25.7229241,3.82926313 C23.2722416,3.83460481 20.8377658,3.43193733 18.5193234,2.63777227 C17.1529348,2.00376796 15.8849262,0.59365492 14.4201576,0.713897117 C12.955389,0.834139314 12.2339358,1.64304137 10.4193717,2.46287453 C8.60480767,3.28270769 6.95421024,3.82926313 8.13476999,4.73654517 C9.31532975,5.6438272 10.4193717,6.0154849 10.047714,6.83531806 C9.67605634,7.65515122 7.86149227,8.3766044 5.94854823,9.1089887 C4.03560418,9.84137299 0.395544943,11.0219327 0.854651514,12.7490479 C1.31375808,14.4761631 3.04087328,19.7668198 6.68093252,19.580991 C10.3209918,19.3951621 12.6055935,18.8595378 13.5128755,18.0397046 C14.4201576,17.2198714 14.966713,14.760372 19.0658788,14.8478208 C23.1650446,14.9352697 25.4496464,15.3943763 23.4383224,16.3016583 C21.4269983,17.2089403 19.2517077,16.7607649 17.2513148,18.3129823 C15.2509218,19.8651998 16.6063793,19.580991 12.7804912,20.6741018 C8.95460316,21.7672127 6.86676137,21.9530416 7.68659453,23.6801568 C8.67446717,25.6044254 10.4225499,27.0274677 12.5072135,27.6044248 C14.5185375,28.0526003 16.0598239,28.325878 15.6990973,30.2388221 C15.3383707,32.1517661 12.0590381,33.8898124 15.4258196,33.8898124 C18.7926011,33.8898124 21.2521006,32.7967015 22.0719337,33.8898124 C22.8917669,34.9829233 25.9962018,32.337595 26.717655,32.6108727 C27.4391082,32.8841504 29.2755345,32.5234238 29.0022567,34.9829233 C28.728979,37.4424228 24.2581555,40.9950331 20.1589897,41.4432086 C16.0598239,41.8913841 8.04732112,42.9079772 6.76838139,44.8209212 C6.13048309,45.6737171 5.63914239,46.6268442 5.31454392,47.6411473 L4.15584638,49.2808136 Z" stroke="#000000" fill-opacity="0.4" fill="#0093FF"></path>
                            <text font-family="PingFangSC-Regular, PingFang SC" font-size="14" font-weight="normal" fill="#FFFFFF">
                                <tspan x="45" y="49">河口街</tspan>
                            </text>
                            <ellipse id="dian" class="dian" fill-opacity="0.3" fill="#FFFFFF" fill-rule="nonzero" cx="65.7332286" cy="60.7357724" rx="4.73322857" ry="4.73577236"></ellipse>
                        </g>
                        <g id="新兴县" transform="translate(371.000000, 395.000000)" fill="#00DAFF">
                            <text font-family="PingFangSC-Regular, PingFang SC" font-size="14" font-weight="normal">
                                <tspan x="0" y="15">新兴县</tspan>
                            </text>
                            <ellipse id="dian" class="dian" stroke-opacity="0.298623252" stroke="#00DAFF" stroke-width="5" fill-rule="nonzero" opacity="0.696707589" cx="20.7332286" cy="32.7357724" rx="4.73322857" ry="4.73577236"></ellipse>
                        </g>
                        <g id="高要市" transform="translate(587.000000, 131.000000)" fill="#00DAFF">
                            <text font-family="PingFangSC-Regular, PingFang SC" font-size="14" font-weight="normal">
                                <tspan x="0" y="15">高要市</tspan>
                            </text>
                            <ellipse id="dian" class="dian" stroke-opacity="0.298623252" stroke="#00DAFF" stroke-width="5" fill-rule="nonzero" opacity="0.696707589" cx="20.7332286" cy="32.7357724" rx="4.73322857" ry="4.73577236"></ellipse>
                        </g>
                        <g id="广梧高速" transform="translate(136.287715, 68.251767)">
                            <path d="M309.194614,112.942293 C301.542838,112.942293 288.578543,109.9581 278.817063,107.389289 C274.30613,106.207877 270.444273,103.292823 268.071783,99.2784067 C263.841443,92.2278415 258.321233,91.4080083 251.533015,91.0691439 C246.701465,90.8286595 237.716093,87.0464959 229.791039,83.7015766 C226.801608,82.3465094 223.739918,81.156866 220.619839,80.1380351 C217.985442,80.1380351 214.924731,78.7716465 205.010216,74.4210652 C201.326432,72.8032611 196.702573,70.7700749 190.799774,68.2559198 C171.014467,59.7843105 88.8671844,52.0560165 88.0473513,51.9794988 L87.7631424,51.9794988 C87.5882447,51.9794988 70.1749883,48.5034062 59.692055,48.8422705 C49.2091216,49.1811349 46.1593422,46.6560488 42.7051118,42.6552629 L41.9071409,41.7479809 C40.3657467,40.5037897 38.6724237,39.4606146 36.8678997,38.643546 C31.6974852,35.932631 24.6250578,32.2051229 22.1983517,25.1436266 C19.4765056,17.2076416 11.4093473,12.8679914 11.3328295,12.824267 C6.94022452,10.204325 3.7087965,7.89435435 0.0710350921,4.29911219 C0.0710350921,4.29911219 -0.327758281,3.18662822 0.764453131,2.19177454 C1.66906704,1.36779626 1.66906704,0.556407238 3.09881449,-7.10542736e-14 C6.40039997,3.25225054 9.91855557,5.59817126 13.8797779,8.00364796 C14.2514356,8.20040792 23.9036047,13.3380291 27.3359728,23.3072003 C29.063088,28.3245793 34.790989,31.3306342 39.3601925,33.7464093 C42.114832,35.2002467 44.4978137,36.4463931 45.9188578,38.0314039 L46.7824154,39.0042726 C49.2856393,41.8791542 50.7941324,43.6172005 59.4734328,43.3220606 C70.1749883,42.9722651 86.8012048,46.17508 88.6485622,46.5358066 C93.6768723,47.0058443 172.566685,54.5045849 192.898547,63.2276098 C198.779484,65.7417648 203.425205,67.774951 207.108989,69.4036862 C215.088698,72.9016411 219.133208,74.6615496 220.597977,74.6615496 C222.062745,74.6615496 224.784592,75.7000049 231.813295,78.6623354 C238.579651,81.5044237 247.8383,85.4068296 251.707913,85.5926584 C257.643505,85.8877984 266.607014,86.3359738 272.662848,96.4691117 C274.30356,99.2549153 276.979594,101.278641 280.106933,102.098633 C288.119436,104.197406 302.657811,107.69536 309.784894,107.454876 C315.600244,107.258116 323.481573,103.366641 329.821616,100.240344 C335.046686,97.6606026 339.167714,95.6164852 342.130045,95.4306564 C343.347732,95.2171278 344.554268,94.9482087 345.745938,94.6249421 C347.161662,94.2408955 347.765334,99.7399012 346.104699,100.195492 C344.737062,100.5707 343.508446,100.827096 342.447047,100.896211 C340.588758,101.005522 336.336557,103.082433 332.215529,105.137481 C325.055653,108.67916 316.911977,112.690877 309.937929,112.92043 L309.194614,112.942293 Z" fill="#FFBF00" fill-rule="nonzero"></path>
                            <text font-family="PingFangSC-Regular, PingFang SC" font-size="14" font-weight="normal" fill="#000000">
                                <tspan x="61.7122851" y="53.7482328">广梧高速</tspan>
                            </text>
                            <text font-family="PingFangSC-Regular, PingFang SC" font-size="14" font-weight="normal" fill="#FFFFFF">
                                <tspan x="61.7122851" y="52.7482328">广梧高速</tspan>
                            </text>
                        </g>
                        <g id="云安区" transform="translate(0.000000, 325.000000)" fill="#00DAFF">
                            <text font-family="PingFangSC-Regular, PingFang SC" font-size="14" font-weight="normal">
                                <tspan x="0" y="15">云安区</tspan>
                            </text>
                            <ellipse id="dian" class="dian" stroke-opacity="0.298623252" stroke="#00DAFF" stroke-width="5" fill-rule="nonzero" opacity="0.696707589" cx="20.7332286" cy="32.7357724" rx="4.73322857" ry="4.73577236"></ellipse>
                        </g>
                    </g>
                </g>
            </g>
        </g>
    </g>
</svg>