<svg xmlns="http://www.w3.org/2000/svg" class="leaflet-zoom-animated" width="780px" height="800px" viewBox="-29 -20 1461 1020" style="transform: translate3d(-29px, -20px, 0px);">
	<!-- Generator: Sketch 63 (92445) - https://sketch.com -->
    <title>云城地图</title>
    <desc>Created with Sketch.</desc>
    <!-- <style>
        .area {
            cursor: pointer;
        }

        .area:hover {
            fill: #0093FF;
            fill-opacity: 0.7;
        }

        .area.active {
            fill: #0093FF;
            fill-opacity: 1;
        }

        .dian.cur {
            fill-opacity: 0;
        }
    </style> -->
	<g>
		<path stroke-linejoin="round" stroke-linecap="round" fill-rule="evenodd" stroke="#999" stroke-opacity="1" stroke-width="1" stroke-dasharray="1,6" fill="transparent" fill-opacity="0.2" class="leaflet-clickable" d="M771 689L774 683L775 669L770 659L781 652L787 643L788 616L790 616L793 611L798 596L796 582L797 575L796 572L790 567L789 561L792 549L784 544L782 539L783 528L784 523L788 522L794 523L799 526L801 516L803 514L806 514L814 518L815 527L825 534L816 537L811 547L807 551L819 557L825 558L843 556L845 558L845 590L840 623L843 631L866 623L876 623L875 639L883 644L883 646L880 650L880 661L868 667L866 673L869 678L874 679L875 683L873 694L868 698L861 699L853 712L846 715L843 715L828 708L824 708L822 706L824 693L819 687L812 691L805 687L799 686L781 686L777 689z"/>
	</g>
	<g>
		<path stroke-linejoin="round" stroke-linecap="round" fill-rule="evenodd" stroke="#999" stroke-opacity="1" stroke-width="1" stroke-dasharray="1,6" fill="transparent" fill-opacity="0.2" class="leaflet-clickable" d="M757 838L755 836L755 832L767 813L767 791L757 780L756 774L764 759L761 754L761 749L762 744L767 743L768 739L765 731L767 728L767 723L770 722L774 727L778 728L779 726L777 719L780 712L775 709L781 706L775 705L773 700L769 697L769 692L771 689L777 689L781 686L799 686L805 687L812 691L819 687L824 693L822 706L823 708L831 709L843 715L853 712L861 699L868 698L872 695L864 707L866 722L864 741L859 748L856 749L854 753L854 764L851 769L845 774L841 782L845 791L852 794L853 798L863 804L865 808L865 822L868 829L867 832L875 832L875 851L877 858L855 870L852 877L850 877L832 864L804 862L794 848L786 844L780 845L767 841L759 841z"/>
	</g>
	<g>
		<path stroke-linejoin="round" stroke-linecap="round" fill-rule="evenodd" stroke="#999" stroke-opacity="1" stroke-width="1" stroke-dasharray="1,6" fill="transparent" fill-opacity="0.2" class="leaflet-clickable" d="M551 674L547 650L549 641L553 633L554 619L550 620L542 629L537 631L522 629L504 623L502 621L501 611L505 605L504 604L500 607L493 599L496 596L496 594L492 591L490 577L498 568L510 549L509 537L515 529L516 513L535 507L549 497L552 497L555 499L557 513L565 518L586 520L596 517L604 512L608 507L610 502L610 489L612 478L618 469L623 471L628 479L635 486L649 490L654 495L656 500L661 502L667 502L676 497L681 497L691 501L696 505L716 510L720 513L728 529L739 541L754 543L770 539L782 538L784 544L792 549L789 561L790 567L796 572L797 575L796 582L798 596L795 604L793 605L794 609L790 616L788 616L787 643L781 652L770 659L759 663L749 660L743 638L739 637L735 637L719 646L715 646L709 628L704 627L692 629L687 638L684 640L674 634L664 634L647 638L639 650L628 654L620 660L610 662L598 670L593 671L582 667L567 665L555 671z"/>
	</g>
	<g>
		<path stroke-linejoin="round" stroke-linecap="round" fill-rule="evenodd" stroke="#999" stroke-opacity="1" stroke-width="1" stroke-dasharray="1,6" fill="transparent" fill-opacity="0.2" class="leaflet-clickable" d="M901 488L919 489L932 482L938 505L940 507L943 508L957 505L967 518L976 525L978 535L975 541L977 550L981 558L995 568L997 568L997 586L988 585L984 587L981 607L965 637L957 639L943 634L934 626L929 625L911 625L895 628L891 625L890 618L886 615L876 623L866 623L843 631L840 623L845 590L845 558L843 556L825 558L819 557L807 551L811 547L816 537L825 535L815 527L814 518L806 514L803 514L801 516L800 526L794 523L784 523L777 521L775 519L774 514L777 509L785 504L821 494L827 491L836 489L846 490L849 492L852 499L855 501L857 510L860 513L871 505L877 503L877 500L884 496L894 495L899 490z"/>
	</g>
	<g>
		<path stroke-linejoin="round" stroke-linecap="round" fill-rule="evenodd" stroke="#999" stroke-opacity="1" stroke-width="1" stroke-dasharray="1,6" fill="transparent" fill-opacity="0.2" class="leaflet-clickable" d="M723 322L733 320L738 321L749 330L765 330L777 339L777 342L780 341L782 338L786 328L813 325L816 321L820 325L819 328L826 335L830 336L830 333L840 332L850 337L855 347L867 357L871 365L875 369L886 374L891 372L888 380L889 393L878 398L872 404L864 419L863 428L870 453L876 466L900 486L901 488L896 494L884 496L877 500L877 503L871 505L860 513L857 510L855 501L852 500L849 493L846 490L840 489L827 491L821 494L785 504L777 509L774 514L775 519L777 521L784 523L782 538L748 543L739 541L732 534L722 519L720 513L716 510L696 505L691 501L681 497L676 497L667 502L661 502L656 500L654 495L649 490L635 486L628 479L623 471L622 461L635 450L647 434L652 416L651 403L660 392L666 389L668 383L665 379L666 371L673 367L684 365L687 363L694 352L711 356L714 355L717 348L721 325z"/>
	</g>
	<g>
		<path stroke-linejoin="round" stroke-linecap="round" fill-rule="evenodd" stroke="#999" stroke-opacity="1" stroke-width="1" stroke-dasharray="1,6" fill="transparent" fill-opacity="0.2" class="leaflet-clickable" d="M1103 813L1097 816L1094 823L1091 824L1085 817L1067 817L1060 810L1055 810L1042 818L1036 818L1037 802L1029 797L1028 794L1012 780L1004 777L990 782L982 778L975 770L978 759L977 755L972 748L970 742L970 735L957 722L953 709L943 703L926 699L921 696L918 692L918 690L926 679L935 680L932 676L929 675L927 671L918 669L917 672L913 671L916 663L911 654L909 656L903 654L901 655L903 662L900 664L897 664L890 655L882 655L880 650L883 644L875 640L876 623L886 615L890 618L891 625L895 628L911 625L929 625L934 626L943 634L957 639L965 637L981 607L984 587L988 585L997 586L997 568L995 568L981 558L977 550L975 541L976 538L984 541L998 539L1006 531L1014 512L1019 510L1038 516L1042 516L1046 515L1052 510L1055 505L1059 506L1065 503L1067 504L1067 510L1075 511L1080 502L1091 501L1101 506L1119 522L1124 524L1138 524L1149 550L1149 576L1153 587L1147 599L1141 600L1138 604L1140 607L1140 615L1143 624L1134 633L1136 639L1135 645L1125 652L1122 652L1120 659L1121 660L1126 655L1132 656L1137 666L1133 665L1131 667L1130 665L1127 668L1133 675L1133 678L1119 682L1116 681L1116 683L1109 683L1113 689L1123 692L1124 698L1132 696L1133 698L1137 699L1135 702L1137 708L1141 709L1137 713L1136 711L1130 715L1124 714L1123 712L1120 714L1118 711L1111 713L1118 721L1119 720L1121 727L1118 727L1119 730L1121 730L1123 733L1123 739L1126 744L1125 751L1128 753L1127 758L1121 760L1114 766L1114 772L1119 775L1131 777L1133 779L1132 782L1124 784L1130 790L1132 797L1127 802L1123 803L1108 797L1105 798L1102 801L1101 809z"/>
	</g>
	<g>
		<path stroke-linejoin="round" stroke-linecap="round" fill-rule="evenodd" stroke="#999" stroke-opacity="1" stroke-width="1" stroke-dasharray="1,6" fill="transparent" fill-opacity="0.2" class="leaflet-clickable" d="M1080 502L1075 511L1067 510L1067 504L1065 503L1059 506L1055 505L1052 510L1046 515L1042 516L1038 516L1019 510L1014 512L1006 531L1001 537L998 539L988 541L979 540L976 538L978 535L976 525L967 518L957 505L943 508L938 505L932 483L919 489L901 488L876 466L873 460L863 428L864 419L872 404L878 398L889 393L888 380L897 357L901 353L909 350L920 342L930 339L933 335L931 311L941 298L939 293L940 281L951 274L957 266L955 258L948 249L945 241L947 237L951 234L960 230L959 232L965 233L968 231L974 238L979 241L995 247L1011 265L1020 269L1029 277L1031 288L1038 305L1045 314L1053 318L1053 321L1050 325L1031 320L1026 322L1022 326L1013 341L1014 347L1019 348L1030 343L1035 343L1032 358L1019 375L1018 380L1020 384L1024 388L1049 392L1054 395L1053 410L1051 414L1053 417L1064 417L1067 419L1076 434L1077 444L1073 448L1065 446L1059 451L1057 448L1055 448L1054 451L1057 453L1059 452L1064 457L1061 457L1062 464L1060 466L1059 478L1055 479L1055 481L1056 483L1059 480L1065 480L1067 483L1072 485L1074 490L1074 496L1076 499z"/>
	</g>
	<g>
		<path stroke-linejoin="round" stroke-linecap="round" fill-rule="evenodd" stroke="#999" stroke-opacity="1" stroke-width="1" stroke-dasharray="1,6" fill="transparent" fill-opacity="0.2" class="leaflet-clickable" d="M876 859L877 855L875 851L875 832L867 832L868 829L865 822L865 808L863 804L853 798L852 794L845 791L841 782L845 774L851 769L854 764L854 753L856 749L859 748L864 741L866 722L864 707L873 694L875 683L874 679L871 679L867 676L866 673L868 667L878 663L880 661L881 655L890 655L897 664L900 664L903 662L901 655L903 654L909 656L910 654L916 662L913 670L916 672L918 669L927 671L929 675L935 679L926 679L918 690L918 692L921 696L926 699L943 703L953 709L957 722L970 735L970 742L978 759L975 770L982 778L990 782L1004 777L1012 780L1023 789L1029 797L1037 802L1036 818L1042 818L1055 810L1060 810L1067 817L1085 817L1091 824L1094 823L1097 816L1100 814L1103 813L1107 815L1111 846L1108 852L1102 876L1103 883L1105 886L1110 885L1112 887L1112 895L1114 897L1104 907L1100 905L1098 901L1095 901L1086 906L1075 904L1070 905L1045 887L1033 889L1023 885L1018 881L1007 879L1000 881L998 883L992 896L989 899L981 901L974 900L974 895L971 893L970 894L967 882L968 881L965 877L962 878L959 872L954 868L944 865L939 866L933 869L921 879L916 881L909 878L903 868L897 862L892 862L883 865L879 864z"/>
	</g>
	<g>
		<path stroke-linejoin="round" stroke-linecap="round" fill-rule="evenodd" stroke="#999" stroke-opacity="1" stroke-width="1" stroke-dasharray="1,6" fill="transparent" fill-opacity="0.2" class="leaflet-clickable" d="M771 689L769 692L769 696L775 704L781 706L775 708L780 711L777 719L779 726L778 728L776 728L770 722L767 723L767 728L765 731L768 739L767 743L762 744L761 754L764 759L756 774L757 780L767 791L767 813L755 832L755 836L757 838L754 839L738 843L717 842L712 840L708 834L711 824L711 815L710 811L706 808L697 807L686 802L680 803L669 808L663 804L639 797L630 786L626 784L613 791L609 788L600 774L598 766L592 760L586 758L583 754L579 754L569 759L563 759L533 769L527 774L518 773L516 770L517 761L516 757L511 750L515 741L543 725L551 718L552 710L547 690L550 684L551 674L561 667L567 665L582 667L593 671L601 669L610 662L620 660L628 654L639 650L647 638L652 636L674 634L684 640L687 638L692 629L704 627L709 628L715 646L719 646L735 637L743 638L749 660L759 663L770 659L775 669L773 686z"/></g><g><path stroke-linejoin="round" stroke-linecap="round" fill-rule="evenodd" stroke="#999" stroke-opacity="1" stroke-width="1" stroke-dasharray="1,6" fill="transparent" fill-opacity="0.2" class="leaflet-clickable" d="M723 322L718 320L709 320L705 316L703 310L701 309L686 309L679 313L670 313L666 310L659 299L659 296L665 284L667 273L673 260L669 259L666 253L666 249L658 239L657 224L654 218L650 220L648 219L646 216L642 214L641 209L638 205L635 204L628 197L622 199L626 204L622 208L620 207L620 203L617 199L609 198L603 200L599 199L599 195L593 193L591 193L587 197L581 198L580 191L574 186L574 181L563 181L553 173L548 175L542 171L540 162L536 158L528 159L523 157L521 152L522 139L519 131L509 121L508 118L510 115L511 108L509 92L500 87L491 86L489 83L489 78L501 78L510 75L513 72L520 74L525 73L527 76L527 79L525 81L526 83L535 85L537 89L537 94L539 96L554 98L564 102L567 100L567 97L570 95L575 87L587 84L588 75L594 75L610 89L623 90L628 92L637 102L639 107L639 121L643 123L649 121L653 124L654 129L660 134L664 146L668 148L681 147L688 149L693 157L698 161L707 163L710 167L712 172L708 183L708 187L713 194L713 207L709 218L718 226L721 234L729 236L737 234L757 214L778 198L794 201L808 199L820 206L827 205L830 200L845 200L850 202L852 205L854 203L852 197L853 185L854 184L858 188L860 188L862 187L863 182L867 198L871 198L876 201L882 200L884 188L889 189L890 196L893 198L894 195L904 187L907 191L909 190L913 182L918 182L922 172L928 166L934 168L944 187L958 203L963 206L962 209L966 213L960 230L948 236L945 241L948 249L955 258L957 266L951 274L940 281L939 293L941 298L931 311L933 335L930 339L920 342L909 350L901 353L897 357L891 372L886 374L875 369L871 365L867 357L855 347L850 337L840 332L830 333L830 336L826 335L819 328L820 325L816 321L813 325L786 328L782 338L780 341L777 342L777 339L769 332L765 330L749 330L738 321L733 320z"/></g><g><path stroke-linejoin="round" stroke-linecap="round" fill-rule="evenodd" stroke="#999" stroke-opacity="1" stroke-width="1" stroke-dasharray="1,6" fill="transparent" fill-opacity="0.2" class="leaflet-clickable" d="M542 171L548 175L553 173L563 181L573 181L574 186L580 191L581 198L587 197L591 193L593 193L599 195L599 198L603 200L609 198L617 199L620 203L620 207L622 208L626 204L622 200L628 197L635 204L638 205L641 209L642 214L646 216L648 219L650 220L654 218L657 224L658 239L666 248L666 253L669 259L673 260L667 273L665 284L659 296L659 299L662 304L670 313L679 313L686 309L701 309L703 310L705 316L709 320L718 320L723 322L721 325L717 348L714 355L711 356L694 352L687 363L684 365L673 367L666 371L665 379L668 383L666 389L660 392L651 403L652 416L647 434L635 450L622 461L623 471L618 469L613 475L610 489L610 502L608 507L604 512L596 517L586 520L565 518L557 513L555 499L552 497L549 497L535 507L516 513L508 489L513 464L519 457L520 453L512 442L511 430L507 428L505 425L512 418L518 405L533 388L536 380L525 375L516 368L509 357L517 322L520 318L528 313L535 301L529 291L530 287L536 281L537 278L534 277L533 275L536 259L533 253L526 251L525 249L531 247L540 230L533 216L519 208L508 188L502 182L506 178L511 179L521 185L531 183L538 179L541 175z"/></g><g><path stroke-linejoin="round" stroke-linecap="round" fill-rule="evenodd" stroke="#999" stroke-opacity="1" stroke-width="1" stroke-dasharray="1,6" fill="transparent" fill-opacity="0.2" class="leaflet-clickable" d="M502 182L508 188L519 208L533 216L540 230L531 247L525 249L526 251L533 253L536 259L533 275L534 277L537 278L536 281L530 287L529 291L535 301L528 313L520 318L517 322L509 357L516 368L525 375L536 380L533 388L518 405L512 418L505 425L507 428L511 430L512 442L520 453L519 457L513 464L508 485L508 489L516 513L516 525L515 529L509 537L510 549L498 568L490 577L487 575L473 575L462 573L441 575L438 573L432 563L420 558L413 553L396 535L391 532L368 532L363 527L352 501L342 466L338 463L327 459L313 446L302 421L288 417L280 409L279 387L270 375L269 360L265 356L257 354L257 326L262 321L263 316L257 308L256 304L252 305L251 303L254 293L254 291L251 290L251 280L254 274L263 270L263 264L265 260L265 257L263 255L266 252L271 239L268 231L270 228L277 226L285 230L294 230L298 228L302 223L300 218L294 212L297 206L302 201L303 192L293 181L290 174L290 169L311 168L318 166L323 162L330 165L332 160L343 154L349 145L364 144L370 142L373 143L376 145L377 153L381 159L387 164L398 165L402 167L407 173L423 185L427 191L427 194L430 196L434 195L439 183L444 181L464 185L476 193L485 194L490 192L500 184z"/></g><g><path stroke-linejoin="round" stroke-linecap="round" fill-rule="evenodd" stroke="#333" stroke-opacity="1" stroke-width="1" fill="transparent" fill-opacity="0.2" class="leaflet-clickable" d="M502 182L506 178L511 179L521 185L531 183L538 179L541 175L542 167L540 162L536 158L528 159L523 157L521 152L522 139L519 131L509 121L508 118L510 115L511 108L509 92L500 87L491 86L488 79L495 79L500 77L501 78L510 75L513 72L520 74L525 73L527 76L527 79L525 81L526 83L535 85L537 89L537 94L539 96L554 98L564 102L567 100L567 97L570 95L575 87L587 84L588 75L594 75L610 89L623 90L631 95L637 102L639 107L639 121L643 123L649 121L653 124L654 129L660 134L664 146L668 148L681 147L688 149L693 157L698 161L707 163L712 172L708 183L708 187L713 194L713 207L709 218L718 226L721 234L729 236L737 234L757 214L778 198L794 201L808 199L820 206L827 205L830 200L845 200L850 202L852 205L854 203L852 197L853 185L854 184L858 188L860 188L862 187L863 182L867 198L871 198L876 201L882 200L884 188L889 189L890 196L893 198L894 195L904 187L907 191L909 190L913 182L918 182L925 168L930 166L934 168L944 187L958 203L963 206L962 209L966 213L959 232L965 233L968 231L974 238L979 241L995 247L1011 265L1020 269L1029 277L1031 288L1038 305L1045 314L1053 318L1053 321L1050 325L1031 320L1026 322L1020 329L1013 341L1014 347L1019 348L1030 343L1035 343L1035 348L1032 358L1021 371L1018 380L1024 388L1049 392L1054 395L1053 410L1051 414L1053 417L1064 417L1067 419L1076 434L1077 440L1077 444L1073 448L1065 446L1059 451L1057 448L1055 448L1054 451L1057 453L1059 452L1064 457L1061 457L1062 464L1060 466L1059 478L1055 479L1055 481L1056 483L1059 480L1065 480L1067 483L1072 485L1074 490L1074 496L1080 502L1091 501L1098 504L1113 518L1124 524L1138 524L1149 550L1150 556L1149 576L1153 587L1147 599L1141 600L1138 604L1140 607L1140 615L1143 624L1134 633L1136 639L1135 645L1125 652L1122 652L1120 659L1121 660L1126 655L1132 656L1137 666L1133 665L1131 667L1130 665L1127 668L1133 675L1133 678L1119 682L1116 681L1116 683L1109 683L1113 689L1123 692L1124 698L1132 696L1133 698L1137 699L1135 702L1137 708L1141 709L1137 713L1136 711L1130 715L1124 714L1123 712L1120 714L1118 711L1111 713L1118 721L1119 720L1121 727L1118 727L1119 730L1121 730L1123 733L1123 739L1126 744L1125 751L1128 753L1127 758L1121 760L1114 766L1114 772L1119 775L1131 777L1133 779L1132 782L1124 784L1132 794L1131 799L1127 802L1123 803L1108 797L1102 801L1101 809L1103 813L1107 815L1111 846L1108 852L1102 876L1103 883L1105 886L1110 885L1112 887L1112 895L1114 897L1108 904L1104 907L1100 905L1098 901L1095 901L1086 906L1075 904L1070 905L1045 887L1033 889L1023 885L1018 881L1007 879L1000 881L998 883L992 896L989 899L981 901L974 900L974 895L971 893L970 894L967 882L968 881L965 877L962 878L956 869L944 865L933 869L921 879L916 881L909 878L903 868L897 862L892 862L883 865L879 864L876 859L855 870L852 877L850 877L832 864L804 862L794 848L786 844L780 845L767 841L759 841L757 838L738 843L717 842L712 840L708 834L711 824L711 815L708 809L697 807L686 802L680 803L669 808L663 804L639 797L630 786L626 784L613 791L609 788L600 774L598 766L592 760L586 758L583 754L579 754L569 759L563 759L533 769L527 774L518 773L516 770L516 757L511 750L513 744L521 737L549 721L552 715L547 690L550 684L551 674L547 650L549 641L553 633L554 619L550 620L542 629L537 631L522 629L504 623L502 621L501 611L505 605L504 604L500 607L493 599L496 596L496 594L492 591L490 577L487 575L473 575L462 573L441 575L438 573L432 563L420 558L413 553L396 535L391 532L368 532L363 527L352 501L342 466L338 463L327 459L313 446L302 421L288 417L280 409L279 387L270 375L269 360L265 356L257 354L257 326L262 321L263 316L257 308L256 304L252 305L251 303L254 293L254 291L251 290L251 280L254 274L263 270L263 264L265 260L265 257L263 255L266 252L271 239L268 231L270 228L274 226L277 226L285 230L294 230L298 228L302 223L300 218L294 212L297 206L302 201L303 192L293 181L290 174L290 169L311 168L318 166L323 162L330 165L332 160L343 154L349 145L364 144L370 142L376 145L377 153L381 159L387 164L398 165L402 167L407 173L423 185L427 191L427 194L430 196L434 195L439 183L444 181L464 185L476 193L485 194L490 192L500 184z"/></g></svg>